<?xml version="1.0" standalone="no"?>
<!DOCTYPE svg PUBLIC "-//W3C//DTD SVG 1.1//EN" "http://www.w3.org/Graphics/SVG/1.1/DTD/svg11.dtd" >
<svg xmlns="http://www.w3.org/2000/svg" xmlns:xlink="http://www.w3.org/1999/xlink" version="1.1">
<metadata>
Created by FontForge 20160405 at Thu Aug  3 19:50:12 2017
 By www-data
Digitized data (C) 2003 Agfa Monotype Corporation. 
</metadata>
<defs>
<font id="SackersHeavyGothic" horiz-adv-x="797" >
  <font-face 
    font-family="Sackers Heavy Gothic"
    font-weight="400"
    font-stretch="normal"
    units-per-em="2048"
    panose-1="2 0 9 9 0 0 0 0 0 4"
    ascent="1638"
    descent="-410"
    x-height="1059"
    cap-height="1528"
    bbox="-334 -512 3551 2131"
    underline-thickness="102"
    underline-position="-358"
    unicode-range="U+0020-F006"
  />
<missing-glyph horiz-adv-x="1024" 
d="M51 0v1536h922v-1536h-922zM179 128h666v1280h-666v-1280z" />
    <glyph glyph-name=".notdef" horiz-adv-x="1024" 
d="M51 0v1536h922v-1536h-922zM179 128h666v1280h-666v-1280z" />
    <glyph glyph-name=".null" horiz-adv-x="0" 
 />
    <glyph glyph-name="nonmarkingreturn" horiz-adv-x="758" 
 />
    <glyph glyph-name="space" unicode=" " horiz-adv-x="758" 
 />
    <glyph glyph-name="exclam" unicode="!" horiz-adv-x="721" 
d="M479 1532l-43 -1131h-145l-39 1131h227zM514 113q0 -61 -42.5 -105.5t-104.5 -44.5q-60 0 -104 45.5t-44 104.5q0 60 43.5 104.5t104.5 44.5q62 0 104.5 -44t42.5 -105z" />
    <glyph glyph-name="quotedbl" unicode="&#x22;" horiz-adv-x="946" 
d="M776 1550l-49 -518h-149l-50 518h248zM418 1550l-49 -518h-150l-49 518h248z" />
    <glyph glyph-name="numbersign" unicode="#" horiz-adv-x="1403" 
d="M1460 983l-61 -162h-295l-96 -229h292l-61 -158h-293l-174 -420h-180l174 420h-311l-176 -420h-179l172 420h-290l61 158h291l98 229h-289l62 162h291l147 352h178l-145 -352h313l146 352h180l-146 -352h291zM926 821h-314l-96 -229h311z" />
    <glyph glyph-name="dollar" unicode="$" horiz-adv-x="1821" 
d="M1550 385q0 -130 -81.5 -226.5t-205.5 -147t-247 -52.5v-145h-205v141q-175 6 -325.5 76.5t-278.5 199.5l139 154q221 -195 465 -211v424h-104q-186 0 -300 86t-114 266q0 98 45.5 173t122 127.5t168.5 83.5t182 40v154h205v-154q225 -25 438 -184l-115 -168
q-91 58 -159.5 87.5t-163.5 47.5v-352q140 0 262 -43t197 -138t75 -239zM811 805v358q-114 -14 -210.5 -66.5t-96.5 -148.5q0 -57 37.5 -88.5t105 -43t164.5 -11.5zM1317 406q0 73 -46.5 115t-113.5 57.5t-141 15.5v-418q128 9 214.5 61.5t86.5 168.5z" />
    <glyph glyph-name="percent" unicode="%" horiz-adv-x="2542" 
d="M2404 389q0 -136 -72 -233t-190.5 -146t-251.5 -49q-127 0 -240 51t-182 148t-69 225q0 139 68.5 236.5t184 146.5t251.5 49q129 0 244.5 -50.5t186 -148t70.5 -229.5zM1950 1470l-1131 -1552h-196l1128 1552h199zM1145 940q0 -136 -72 -233t-191.5 -146t-252.5 -49
q-127 0 -240 51t-182.5 148t-69.5 225q0 139 68.5 236.5t184 146.5t251.5 49q128 0 245.5 -50.5t188 -148t70.5 -229.5zM2198 393q0 70 -41 125.5t-108 85t-140 29.5q-77 0 -146.5 -30t-112 -87t-42.5 -129q0 -107 90.5 -175.5t206.5 -68.5q117 0 205 70.5t88 179.5z
M934 944h2q0 70 -40.5 125.5t-107 85t-141.5 29.5t-144.5 -30t-113 -86.5t-43.5 -129.5q0 -70 42 -126.5t110.5 -87t144.5 -30.5q58 0 110 18.5t92 50.5t64.5 80t24.5 101z" />
    <glyph glyph-name="ampersand" unicode="&#x26;" horiz-adv-x="1782" 
d="M1645 0h-302l-96 104q-80 -47 -152.5 -78.5t-142.5 -44t-170 -12.5q-135 0 -272 50.5t-226 150t-89 240.5q0 111 60.5 197.5t151.5 135.5t189 62q-46 48 -79.5 116.5t-33.5 153.5q0 143 109.5 228.5t306.5 85.5q84 0 165.5 -16.5t154.5 -45.5t114 -55l-98 -195
q-34 21 -93 47.5t-120 44t-117 17.5q-87 0 -133.5 -31t-46.5 -78q0 -34 13.5 -63.5t30.5 -51t42 -49.5l459 -499q66 70 178 233l184 -121q-81 -141 -211 -280zM1090 279l-336 356q-95 -26 -131 -37t-84.5 -35t-82.5 -65t-34 -97q0 -68 59 -114t142 -67t149 -21
q67 0 115.5 7.5t95 25t107.5 47.5z" />
    <glyph glyph-name="quotesingle" unicode="'" horiz-adv-x="682" 
d="M475 1550l-49 -518h-150l-49 518h248z" />
    <glyph glyph-name="parenleft" unicode="(" horiz-adv-x="872" 
d="M762 1464q-84 -57 -174 -167t-149.5 -253t-59.5 -284q0 -135 57.5 -274.5t146 -255t169.5 -177.5l-121 -104q-99 78 -186 173t-150.5 199.5t-99 218t-35.5 226.5q0 116 36 231.5t104.5 224.5t163.5 200t204 155z" />
    <glyph glyph-name="parenright" unicode=")" horiz-adv-x="872" 
d="M762 760q0 -154 -64 -309t-179.5 -285.5t-262.5 -216.5l-96 112q86 57 175.5 168.5t148.5 251.5t59 285q0 106 -34.5 211.5t-89.5 200.5t-122.5 173t-124.5 119l121 107q98 -74 183.5 -167.5t150.5 -201t100 -221t35 -227.5z" />
    <glyph glyph-name="asterisk" unicode="*" horiz-adv-x="1024" 
d="M864 1284l-209 -119l207 -118l-67 -121l-209 116v-237h-140v237l-215 -120l-71 122l211 121l-207 119l69 121l213 -117v242h140v-242l207 119z" />
    <glyph glyph-name="plus" unicode="+" horiz-adv-x="1821" 
d="M1397 383h-391v-385h-191v385h-391v190h391v385h191v-385h391v-190z" />
    <glyph glyph-name="comma" unicode="," 
d="M616 4q0 -80 -29.5 -145.5t-72.5 -114t-88 -84.5q-46 -31 -61 -31q-50 0 -50 54q0 34 31 57q47 29 83 77.5t36 98.5q0 53 -41 53q-58 0 -93.5 39.5t-35.5 102.5q0 50 46 87.5t97 37.5q85 0 131.5 -69.5t46.5 -162.5z" />
    <glyph glyph-name="hyphen" unicode="-" horiz-adv-x="1249" 
d="M983 410h-717v243h717v-243z" />
    <glyph glyph-name="period" unicode="." horiz-adv-x="758" 
d="M522 113q0 -60 -41.5 -104t-101.5 -44t-101.5 44t-41.5 104t41.5 103.5t101.5 43.5q62 0 102.5 -44t40.5 -103z" />
    <glyph glyph-name="slash" unicode="/" horiz-adv-x="1290" 
d="M1186 1526l-856 -1585h-250l852 1585h254z" />
    <glyph glyph-name="zero" unicode="0" horiz-adv-x="1821" 
d="M1702 664q0 -120 -42.5 -236t-121 -211t-184.5 -156q-94 -54 -206.5 -77t-244.5 -23q-70 0 -141 6.5t-134.5 24t-123.5 47.5q-85 43 -155.5 108.5t-122.5 148.5t-78.5 176.5t-26.5 184.5q0 117 39 232q39 121 115 214t177.5 151.5t217 86t243.5 27.5q267 0 449 -104
q103 -60 179.5 -154t118.5 -210t42 -236zM1479 672q0 115 -45.5 206t-124.5 152t-179.5 92t-214.5 31q-112 0 -214.5 -32t-184 -97t-127 -156.5t-45.5 -210.5q0 -149 80 -259.5t211 -168t278 -57.5q151 0 281 59t207.5 172t77.5 269z" />
    <glyph glyph-name="one" unicode="1" horiz-adv-x="1251" 
d="M735 0h-217v1337h217v-1337z" />
    <glyph glyph-name="two" unicode="2" horiz-adv-x="1821" 
d="M1524 0h-1227q-6 41 -6 82q0 170 59.5 318t178.5 249t284 125q37 6 149 19t166 22q70 12 121 52t51 106q0 50 -37 84t-95.5 54.5t-116.5 28t-105 7.5q-103 0 -185 -14.5t-156 -43t-177 -81.5l-94 194q178 98 298 131t316 33q95 0 194.5 -21.5t186.5 -66.5t140 -119.5
t53 -175.5q0 -83 -34.5 -152.5t-95.5 -121t-135 -82.5t-155 -43q-64 -9 -124.5 -15.5t-112.5 -14.5t-93 -22q-90 -27 -145.5 -96.5t-91.5 -214.5h989v-221z" />
    <glyph glyph-name="three" unicode="3" horiz-adv-x="1821" 
d="M1622 369q0 -154 -124 -244t-291.5 -123t-325.5 -33q-174 0 -346 43q-97 26 -171 62.5t-169 99.5l124 178q102 -66 190.5 -100t182 -48t221.5 -14q84 0 196 16t201 58.5t89 116.5q0 53 -48.5 93t-116 66.5t-126.5 37.5q-88 16 -201 16q-53 0 -80 -2v213q68 0 164.5 8
t169.5 33q59 21 103.5 56.5t44.5 86.5q0 47 -42.5 78.5t-107 48t-124 23t-111.5 6.5q-86 0 -160.5 -13.5t-142 -37.5t-162.5 -66l-103 184q170 90 290 122t306 32q96 0 197 -20t189 -63.5t143 -115t55 -172.5q0 -84 -42.5 -151.5t-117.5 -130.5q246 -130 246 -344z" />
    <glyph glyph-name="four" unicode="4" horiz-adv-x="1821" 
d="M1675 328h-309v-328h-223v328h-920l-98 213l967 798h274v-792h309v-219zM1143 547v549l-660 -549h660z" />
    <glyph glyph-name="five" unicode="5" horiz-adv-x="1821" 
d="M1614 424q0 -106 -59.5 -191.5t-153 -142.5t-197.5 -86q-145 -37 -291 -37q-136 0 -249.5 19.5t-215 58.5t-204.5 98l100 187q116 -51 198 -80t174.5 -46.5t198.5 -17.5q101 0 209 25q101 26 183 79.5t82 135.5q0 81 -69 131t-168.5 71t-205.5 21q-92 0 -187.5 -20
t-166.5 -45.5t-168 -67.5l-143 131v692h1226v-206h-1005v-347q131 46 227 64t223 18q110 0 226 -23t215 -75.5t160 -138.5t61 -207z" />
    <glyph glyph-name="six" unicode="6" horiz-adv-x="1821" 
d="M1655 416q0 -160 -131 -265.5t-307 -148.5q-138 -31 -265 -31q-156 0 -299 45t-256 133.5t-178 216.5t-65 291q0 214 117.5 376t310 248.5t401.5 86.5q113 0 213 -24t184.5 -63t206.5 -112l-106 -188q-103 62 -171 94t-147 50t-180 18q-112 0 -214.5 -29t-185.5 -86
t-136 -144t-66 -202q123 62 214 94t186.5 45t226.5 13q107 0 218 -22t208 -70.5t159 -130.5t62 -195zM1434 416q0 71 -88 119t-179 65q-66 14 -147 14q-148 0 -293 -40t-297 -113q38 -95 124 -154.5t194.5 -84.5t214.5 -25q101 0 188 20q101 22 192 73t91 126z" />
    <glyph glyph-name="seven" unicode="7" horiz-adv-x="1821" 
d="M1518 1194l-781 -1194h-266l731 1116h-917v221h1116z" />
    <glyph glyph-name="eight" unicode="8" horiz-adv-x="1821" 
d="M1634 373q0 -158 -115.5 -250t-276 -125t-322.5 -33q-161 0 -327.5 32.5t-287.5 123.5t-121 250q0 73 39 149q35 68 89 111t137 84q-82 61 -125 131t-43 166q0 208 190.5 283t437.5 75q107 0 212.5 -14.5t198 -53t151.5 -111.5t59 -187q0 -94 -42.5 -162.5t-125.5 -126.5
q65 -28 110.5 -55.5t77.5 -67.5q84 -100 84 -219zM1311 993q0 96 -134.5 125t-285.5 29q-78 0 -163 -10t-153.5 -44.5t-68.5 -101.5t74.5 -106.5t170.5 -53.5t169 -14q124 0 257.5 42t133.5 134zM1407 383q0 56 -52.5 97.5t-122.5 66.5t-132 37q-102 16 -195 16
q-134 0 -272.5 -36.5t-194.5 -117.5q-8 -11 -18 -36t-10 -35q0 -106 169 -147.5t326 -41.5q87 0 203.5 16t207.5 60t91 121z" />
    <glyph glyph-name="nine" unicode="9" horiz-adv-x="1821" 
d="M1669 684q0 -212 -119 -376t-309 -252.5t-399 -88.5q-133 0 -279 39q-69 19 -121.5 40.5t-107.5 54t-105 67.5l109 192q81 -52 159 -89t161 -56.5t176 -19.5q144 0 279.5 53t225.5 157t103 250q-108 -50 -172 -75.5t-130.5 -42.5t-144.5 -25t-182 -8q-130 0 -246 26
q-104 26 -194.5 77t-147.5 131.5t-57 183.5q0 79 34.5 145.5t95 120t128 87.5t145.5 56q141 37 289 37q210 0 396.5 -79t299.5 -235t113 -370zM1393 877q-52 96 -134.5 156t-184 86t-216.5 26q-103 0 -188 -21q-56 -14 -121.5 -40t-114.5 -67.5t-49 -90.5q0 -66 75.5 -111
t164.5 -70q87 -20 184 -20q100 0 199.5 18.5t193.5 53t191 80.5z" />
    <glyph glyph-name="colon" unicode=":" horiz-adv-x="758" 
d="M520 881q0 -59 -42 -102.5t-99 -43.5q-58 0 -99.5 43.5t-41.5 100.5t41 100t100 43q38 0 70.5 -19t51.5 -51.5t19 -70.5zM520 109q0 -58 -42 -101t-99 -43q-58 0 -99.5 41.5t-41.5 99.5q0 39 18.5 72.5t51 53.5t71.5 20q57 0 99 -43.5t42 -99.5z" />
    <glyph glyph-name="semicolon" unicode=";" 
d="M522 877q0 -59 -42.5 -101.5t-100.5 -42.5q-57 0 -99 41t-42 98q0 38 19 73.5t51.5 56t70.5 20.5q39 0 71.5 -20t52 -53.5t19.5 -71.5zM555 4q0 -80 -30 -146.5t-72 -112.5t-88 -85q-50 -31 -62 -31q-21 0 -35 15t-14 39q0 35 31 57q48 30 83 78t35 98q0 53 -41 53
q-59 0 -94 40t-35 102q0 51 42 88t92 37q57 0 99.5 -33.5t65.5 -86.5t23 -112z" />
    <glyph glyph-name="less" unicode="&#x3c;" horiz-adv-x="1821" 
d="M1315 29l-809 354v178l809 354v-202l-576 -240l576 -242v-202z" />
    <glyph glyph-name="equal" unicode="=" horiz-adv-x="1821" 
d="M1397 567h-973v191h973v-191zM1397 199h-973v190h973v-190z" />
    <glyph glyph-name="greater" unicode="&#x3e;" horiz-adv-x="1821" 
d="M1315 383l-809 -354v202l575 242l-575 240v202l809 -354v-178z" />
    <glyph glyph-name="question" unicode="?" horiz-adv-x="1214" 
d="M1055 1169q0 -117 -59 -208t-165 -170l-206 -156q-50 -40 -50 -117v-133h-231v152q0 90 17.5 137.5t66.5 83.5l217 168q73 56 112.5 112t39.5 129q0 117 -103.5 156t-247.5 39q-177 0 -327 -43v211q91 26 184.5 33.5t218.5 7.5q150 0 269 -36t191.5 -126t72.5 -240z
M604 113h2q0 -61 -42.5 -105.5t-104.5 -44.5q-60 0 -104 45.5t-44 104.5q0 60 43.5 104.5t104.5 44.5q38 0 72 -20.5t53.5 -55t19.5 -73.5z" />
    <glyph glyph-name="at" unicode="@" horiz-adv-x="2195" 
d="M2044 754q0 -129 -60 -239.5t-155 -173t-193 -62.5q-200 0 -288 96q-94 -94 -297 -94q-85 0 -165 24t-133 81.5t-53 148.5q0 150 116.5 199.5t340.5 49.5h129q0 26 -12 54q-27 63 -164 63q-87 0 -130.5 -15t-49.5 -55h-191q26 127 127.5 176.5t263.5 49.5
q186 0 271.5 -74.5t85.5 -226.5v-172q0 -140 147 -140q60 0 110 41.5t79.5 113.5t29.5 157q0 154 -106.5 277.5t-284.5 192t-379 68.5q-188 0 -354.5 -76.5t-267.5 -218.5t-101 -323q0 -190 101.5 -335t272.5 -222.5t368 -77.5q218 0 338 86l121 -154q-74 -45 -186.5 -76.5
t-270.5 -31.5q-179 0 -346.5 53t-302 156.5t-212 251.5t-77.5 329q0 198 69.5 350.5t195 255.5t293 155t366.5 52q266 0 482.5 -79t344 -240t127.5 -395zM1282 621h-111h-81q-56 0 -82 -3q-63 -5 -88 -23.5t-25 -64.5q0 -40 43.5 -62t114.5 -22q226 0 229 175z" />
    <glyph glyph-name="A" unicode="A" horiz-adv-x="1706" 
d="M1659 0h-250l-219 498h-686l-228 -498h-241l694 1526h246zM1090 723l-242 532l-242 -532h484z" />
    <glyph glyph-name="B" unicode="B" horiz-adv-x="1858" 
d="M1706 418q0 -178 -131 -297q-60 -55 -118.5 -81.5t-116 -33t-158.5 -6.5h-877v1528h877q127 0 230.5 -49t161.5 -143.5t58 -225.5q0 -95 -33 -165t-104 -136q211 -165 211 -391zM1409 1108q0 199 -227 199h-656v-410h656q103 0 165 54t62 157zM1485 446q0 124 -85.5 174
t-217.5 50h-656v-445h678q72 0 124 13t93 55q32 32 48 71.5t16 81.5z" />
    <glyph glyph-name="C" unicode="C" horiz-adv-x="1896" 
d="M1769 274q-264 -311 -716 -311q-174 0 -330.5 56.5t-276 163t-186.5 256.5t-67 329q0 227 108 409.5t294.5 285t412.5 102.5q206 0 395.5 -82.5t341.5 -231.5l-166 -141q-130 110 -266.5 170.5t-292.5 60.5q-168 0 -307 -72t-220 -204.5t-81 -300.5q0 -179 90 -309.5
t241 -198.5t324 -68q89 0 161.5 14.5t142 47t130 78t121.5 106.5z" />
    <glyph glyph-name="D" unicode="D" horiz-adv-x="1896" 
d="M1767 770q0 -157 -61 -306.5t-166 -260.5q-101 -110 -216 -156.5t-271 -46.5h-744v1528h738q154 0 286 -59t229.5 -163.5t151 -243t53.5 -292.5zM1542 754q0 110 -33 211.5t-96.5 177.5t-156 119t-207.5 43h-521v-1082h525q145 0 256 72.5t172 194t61 264.5z" />
    <glyph glyph-name="E" unicode="E" horiz-adv-x="1745" 
d="M1606 0h-1297v1528h1258v-225h-1035v-400h521v-221h-521v-459h1074v-223z" />
    <glyph glyph-name="F" unicode="F" horiz-adv-x="1706" 
d="M1565 1307h-1030v-424h626v-228h-626v-655h-222v1528h1252v-221z" />
    <glyph glyph-name="G" unicode="G" horiz-adv-x="1858" 
d="M1724 428q0 -108 -59.5 -195.5t-155.5 -147t-200 -87.5q-123 -35 -273 -35q-228 0 -420.5 103t-304.5 286.5t-112 413.5q0 229 113.5 411.5t307 284t420.5 101.5q107 0 197 -18t164.5 -51.5t147 -86.5t141.5 -123l-154 -158q-105 116 -216.5 165.5t-266.5 49.5
q-130 0 -244 -39t-203 -114.5t-139.5 -184.5t-50.5 -239q0 -175 85.5 -306.5t231 -201.5t316.5 -70q89 0 176 21q65 17 128 48t107.5 78.5t44.5 108.5v172h-485v222h704v-408z" />
    <glyph glyph-name="H" unicode="H" horiz-adv-x="1972" 
d="M1661 0h-223v684h-899v-684h-222v1528h222v-619h899v619h223v-1528z" />
    <glyph glyph-name="I" unicode="I" 
d="M512 0h-219v1528h219v-1528z" />
    <glyph glyph-name="J" unicode="J" horiz-adv-x="1669" 
d="M1350 1528v-957q0 -78 -6 -131t-25.5 -104t-61.5 -111q-93 -136 -239 -198t-324 -62q-134 0 -252.5 34t-210.5 110q-43 36 -76 76.5t-58 84.5t-56 109l201 100q51 -110 107.5 -173.5t136 -90.5t202.5 -27q125 0 227 39t164 131q27 40 38 90t11 154v926h222z" />
    <glyph glyph-name="K" unicode="K" horiz-adv-x="1706" 
d="M1661 0h-258l-473 831l-400 -423v-408h-221v1528h221v-799l754 799h309l-506 -531z" />
    <glyph glyph-name="L" unicode="L" horiz-adv-x="1518" 
d="M1473 0h-1154v1528h224v-1305h930v-223z" />
    <glyph glyph-name="M" unicode="M" horiz-adv-x="2124" 
d="M1819 0h-224v1069l-542 -944l-529 944v-1069h-217v1528h219l527 -953l544 953h222v-1528z" />
    <glyph glyph-name="N" unicode="N" horiz-adv-x="1972" 
d="M1671 0h-221l-922 1163v-1163h-219v1528h217l920 -1168v1168h225v-1528z" />
    <glyph glyph-name="O" unicode="O" horiz-adv-x="2048" 
d="M1845 762q0 -164 -65.5 -312t-180.5 -257t-265 -169.5t-312 -60.5q-227 0 -416 109.5t-297 297.5t-108 416q0 219 113.5 399.5t303 284t406.5 103.5q222 0 411 -107t299.5 -294.5t110.5 -409.5zM1624 774q0 164 -81.5 295t-219.5 205t-301 74q-167 0 -305 -75
t-217.5 -210t-79.5 -303q0 -160 83.5 -291.5t223.5 -206t297 -74.5q122 0 230.5 44t193 125.5t130.5 187.5t46 229z" />
    <glyph glyph-name="P" unicode="P" horiz-adv-x="1782" 
d="M1647 1092q0 -132 -56 -233.5t-157.5 -155.5t-233.5 -54h-663v-649h-224v1528h887q134 0 235.5 -52t156.5 -151.5t55 -232.5zM1425 1092q0 112 -55.5 162.5t-169.5 50.5h-663v-431h663q225 0 225 218z" />
    <glyph glyph-name="Q" unicode="Q" horiz-adv-x="2048" 
d="M1851 762q0 -132 -35.5 -242t-103.5 -203t-174 -180l191 -194l-189 -131l-203 208q-165 -55 -311 -55q-165 0 -314 60t-264 170.5t-178 257t-63 313.5q0 221 112.5 406.5t302.5 293t410 107.5q169 0 319 -61t263 -172.5t175 -259.5t62 -318zM1628 774q0 124 -47 230.5
t-128.5 182.5t-192 118.5t-232.5 42.5t-231.5 -41.5t-194 -120.5t-131.5 -185t-47 -231q0 -124 48.5 -233t135 -188t197.5 -122t235 -43q63 0 123 19l-80 82l195 118l102 -102q122 93 185 208.5t63 264.5z" />
    <glyph glyph-name="R" unicode="R" horiz-adv-x="1821" 
d="M1688 1077q0 -171 -92 -283t-261 -153l318 -641h-252l-307 633h-570v-633h-223v1528h905q104 0 193 -29.5t153.5 -87t100 -142.5t35.5 -192zM1466 1090q0 114 -70.5 165.5t-189.5 51.5h-682v-451h682q119 0 189.5 59t70.5 175z" />
    <glyph glyph-name="S" unicode="S" horiz-adv-x="1706" 
d="M1581 446q0 -171 -112 -280t-277 -155t-334 -46q-234 0 -418 74.5t-346 239.5l156 149q99 -91 194 -142.5t201 -73.5t244 -22q102 0 210 24.5t185.5 87t77.5 163.5q0 54 -27.5 99t-74.5 75q-55 36 -126.5 46t-254.5 13l-230 4q-96 3 -175.5 27.5t-142.5 73.5t-99.5 123.5
t-36.5 167.5q0 105 52.5 192.5t139.5 149t188 94.5q131 39 265 39q89 0 172 -12.5t162 -38.5t154 -64.5t147 -93.5l-125 -178q-140 86 -240.5 122.5t-241.5 36.5q-91 0 -194.5 -22t-178.5 -77t-75 -146q0 -176 258 -176h227q109 0 176 -5t139.5 -24.5t145.5 -63.5
q102 -60 158.5 -159.5t56.5 -221.5z" />
    <glyph glyph-name="T" unicode="T" horiz-adv-x="1554" 
d="M1423 1305h-538v-1305h-217v1305h-545v223h1300v-223z" />
    <glyph glyph-name="U" unicode="U" horiz-adv-x="1972" 
d="M1659 580q0 -136 -20 -219t-89 -171q-89 -118 -244.5 -169.5t-334.5 -51.5q-115 0 -223 25.5t-200.5 82t-152.5 144.5q-36 53 -55.5 110.5t-25 114.5t-5.5 134v948h221v-948q0 -94 16 -157t70 -118q113 -112 390 -112q148 0 242 35t143 120t49 232v948h219v-948z" />
    <glyph glyph-name="V" unicode="V" horiz-adv-x="1706" 
d="M1659 1528l-682 -1528h-264l-672 1528h242l563 -1278l567 1278h246z" />
    <glyph glyph-name="W" unicode="W" horiz-adv-x="2087" 
d="M2036 1528l-457 -1528h-229l-312 1081l-301 -1081h-241l-457 1528h229l344 -1133l314 1133h217l321 -1133l338 1133h234z" />
    <glyph glyph-name="X" unicode="X" horiz-adv-x="1630" 
d="M1573 0h-283l-469 643l-485 -643h-285l627 829l-504 699h270l377 -510l383 510h277l-518 -699z" />
    <glyph glyph-name="Y" unicode="Y" horiz-adv-x="1554" 
d="M1522 1528l-631 -866v-662h-221v662l-621 866h268l467 -647l461 647h277z" />
    <glyph glyph-name="Z" unicode="Z" horiz-adv-x="1442" 
d="M1389 0h-1272l-72 154l975 1149h-889v225h1165l80 -152l-979 -1149h992v-227z" />
    <glyph glyph-name="bracketleft" unicode="[" horiz-adv-x="872" 
d="M649 0h-364v1532h364v-164h-164v-1208h164v-160z" />
    <glyph glyph-name="backslash" unicode="\" horiz-adv-x="1290" 
d="M1186 -59h-250l-856 1585h254z" />
    <glyph glyph-name="bracketright" unicode="]" horiz-adv-x="872" 
d="M608 0h-364v160h164v1208h-164v164h364v-1532z" />
    <glyph glyph-name="asciicircum" unicode="^" horiz-adv-x="1821" 
d="M1384 721h-217l-256 461l-258 -461h-217l383 647h182z" />
    <glyph glyph-name="underscore" unicode="_" horiz-adv-x="1024" 
d="M1024 -256h-1024v100h1024v-100z" />
    <glyph glyph-name="grave" unicode="`" 
d="M600 1174h-188l-215 249h239z" />
    <glyph glyph-name="a" unicode="a" horiz-adv-x="1403" 
d="M1348 0h-242l-107 223h-620l-107 -223h-241l514 1061h282zM893 434l-205 420l-205 -420h410z" />
    <glyph glyph-name="b" unicode="b" horiz-adv-x="1518" 
d="M1317 332q0 -109 -48.5 -183.5t-135 -111.5t-193.5 -37h-692v1061h692q50 0 90.5 -5t78.5 -21.5t69 -47.5q42 -39 64 -95t22 -118q0 -65 -14 -103.5t-58 -90.5q66 -53 95.5 -109.5t29.5 -138.5zM1047 760q0 50 -27 69t-80 19h-481v-182h481q59 0 83 18.5t24 75.5z
M1106 336q0 69 -45.5 94t-120.5 25h-481v-242h481q77 0 121.5 26.5t44.5 96.5z" />
    <glyph glyph-name="c" unicode="c" horiz-adv-x="1518" 
d="M1391 131q-102 -65 -179.5 -100.5t-162.5 -50.5t-199 -15q-170 0 -321 64t-241.5 189.5t-90.5 299.5q0 128 50.5 236.5t138 184t203 116.5t240.5 41q163 0 279.5 -47.5t263.5 -157.5l-125 -186q-101 88 -199.5 131t-222.5 43q-101 0 -197.5 -43.5t-157 -124.5t-60.5 -185
q0 -106 62 -186.5t160.5 -121t203.5 -40.5q95 0 168.5 15t140 47t149.5 88z" />
    <glyph glyph-name="d" unicode="d" horiz-adv-x="1554" 
d="M1421 539q0 -165 -66.5 -286.5t-188.5 -187t-281 -65.5h-576v1061h576q160 0 282 -60t188 -179t66 -283zM1206 535q0 152 -84.5 232.5t-236.5 80.5h-355v-635h355q101 0 173 38t110 110t38 174z" />
    <glyph glyph-name="e" unicode="e" horiz-adv-x="1403" 
d="M1278 0h-963v1061h938v-213h-729v-195h385v-211h-385v-229h754v-213z" />
    <glyph glyph-name="f" unicode="f" horiz-adv-x="1366" 
d="M1253 848h-729v-195h385v-211h-385v-442h-209v1061h938v-213z" />
    <glyph glyph-name="g" unicode="g" horiz-adv-x="1479" 
d="M1298 158q-127 -104 -243 -148.5t-273 -44.5q-125 0 -241.5 37.5t-208 111t-142.5 179t-51 237.5q0 131 52 238t140.5 179t205 110.5t241.5 38.5q280 0 500 -135l-125 -213q-195 133 -385 133q-107 0 -202 -40t-153.5 -120.5t-58.5 -188.5q0 -164 118 -257t286 -93
q96 0 163.5 22t159.5 75v127h-260v198h477v-446z" />
    <glyph glyph-name="h" unicode="h" horiz-adv-x="1630" 
d="M1313 0h-209v444h-578v-444h-209v1061h209v-402h578v402h209v-1061z" />
    <glyph glyph-name="i" unicode="i" 
d="M504 0h-209v1061h209v-1061z" />
    <glyph glyph-name="j" unicode="j" horiz-adv-x="1327" 
d="M1010 397q0 -136 -65.5 -234.5t-177 -148t-247.5 -49.5q-111 0 -196.5 31t-152.5 93t-122 159l180 123q58 -100 128.5 -145.5t179.5 -45.5q72 0 132 23.5t96 72.5t36 121v664h209v-664z" />
    <glyph glyph-name="k" unicode="k" horiz-adv-x="1366" 
d="M1317 0h-256l-332 524l-203 -196v-328h-211v1061h211v-438l445 438h286l-372 -377z" />
    <glyph glyph-name="l" unicode="l" horiz-adv-x="1176" 
d="M1124 0h-823v1061h219v-844h604v-217z" />
    <glyph glyph-name="m" unicode="m" horiz-adv-x="1782" 
d="M1477 0h-211v676l-371 -533l-375 533v-676h-211v1061h213l373 -533l371 533h211v-1061z" />
    <glyph glyph-name="n" unicode="n" horiz-adv-x="1630" 
d="M1323 0h-211l-590 719v-719h-211v1061h211l590 -717v717h211v-1061z" />
    <glyph glyph-name="o" unicode="o" horiz-adv-x="1706" 
d="M1503 541q0 -130 -52.5 -237t-146.5 -183.5t-213 -116t-243 -39.5q-170 0 -319 69t-239.5 199.5t-90.5 301.5q0 173 91.5 300t241 194t318.5 67q126 0 244 -35t210.5 -105.5t145.5 -176t53 -238.5zM1288 539q0 113 -63.5 189.5t-162.5 113.5t-210 37q-81 0 -159 -20.5
t-141.5 -64t-100.5 -110.5t-37 -154q0 -113 63.5 -192t164.5 -117.5t212 -38.5q79 0 156 23t140 69t100.5 114t37.5 151z" />
    <glyph glyph-name="p" unicode="p" horiz-adv-x="1442" 
d="M1323 725q0 -69 -24.5 -133.5t-69.5 -112.5q-38 -42 -83 -64t-88.5 -27t-117.5 -5h-428v-383h-209v1061h674q81 0 130 -15t101 -61q55 -46 85 -115t30 -145zM1108 727q0 71 -45 96t-123 25h-428v-254h428q84 0 126 26.5t42 106.5z" />
    <glyph glyph-name="q" unicode="q" horiz-adv-x="1669" 
d="M1487 528q0 -92 -28 -170.5t-80 -143.5t-124 -122l136 -151l-203 -84l-135 139q-121 -31 -228 -31q-125 0 -239.5 38.5t-207 115t-143.5 181.5t-51 232q0 133 56.5 239.5t151.5 178.5t213 109t247 37q128 0 242.5 -39t203 -112t139 -180t50.5 -237zM1272 535
q0 113 -63 191t-164.5 115.5t-210.5 37.5t-209.5 -40t-162 -120.5t-61.5 -192.5q0 -100 56.5 -178.5t148 -122t189.5 -43.5q43 0 86 6l-54 66l203 86l74 -80q82 55 125 119.5t43 155.5z" />
    <glyph glyph-name="r" unicode="r" horiz-adv-x="1479" 
d="M1386 0h-268l-268 434h-338v-434h-215v1061h725q67 0 112 -11.5t91 -45.5q43 -31 72 -72.5t44 -90t15 -100.5q0 -117 -61.5 -193.5t-176.5 -113.5zM1141 748q0 63 -41 81.5t-115 18.5h-473v-203h510q49 0 84 27t35 76z" />
    <glyph glyph-name="s" unicode="s" horiz-adv-x="1403" 
d="M1272 319q0 -137 -83.5 -216t-207.5 -109.5t-260 -30.5t-225.5 15.5t-173.5 55t-197 118.5l98 190q109 -68 189 -102.5t168 -48t211 -13.5q96 0 181 35.5t85 116.5q0 97 -160 106q-35 2 -96.5 3.5t-114.5 2.5l-106 2q-101 5 -190 41.5t-143 107.5t-54 177q0 124 75 196.5
t188.5 101t233.5 28.5q142 0 260 -33.5t252 -106.5l-96 -188q-114 60 -225 88.5t-242 28.5q-82 0 -157.5 -27.5t-75.5 -95.5q0 -94 188 -103q62 -2 100 -2.5l76 -1t100 -2.5q114 -5 204 -38.5t144 -107.5t54 -188z" />
    <glyph glyph-name="t" unicode="t" horiz-adv-x="1251" 
d="M1126 850h-399v-850h-211v850h-385v211h995v-211z" />
    <glyph glyph-name="u" unicode="u" horiz-adv-x="1630" 
d="M1325 416q0 -96 -15 -158.5t-65 -124.5q-49 -60 -121 -97.5t-158 -54t-165 -16.5q-231 0 -365.5 111.5t-134.5 339.5v645h211v-645q0 -103 40 -154.5t106.5 -66.5t172.5 -15q49 0 107 12t98 35q46 26 63 65.5t17 123.5v645h209v-645z" />
    <glyph glyph-name="v" unicode="v" horiz-adv-x="1366" 
d="M1325 1061l-510 -1061h-272l-502 1061h238l399 -846l407 846h240z" />
    <glyph glyph-name="w" unicode="w" horiz-adv-x="1706" 
d="M1673 1061l-332 -1061h-284l-205 778l-205 -778h-280l-326 1061h227l234 -778l217 778h274l211 -778l244 778h225z" />
    <glyph glyph-name="x" unicode="x" horiz-adv-x="1366" 
d="M1313 0h-287l-340 406l-346 -406h-289l490 573l-410 486h289l266 -324l281 324h280l-418 -486z" />
    <glyph glyph-name="y" unicode="y" horiz-adv-x="1176" 
d="M1145 1061l-438 -633v-428h-209v428l-447 633h266l283 -418l291 418h254z" />
    <glyph glyph-name="z" unicode="z" horiz-adv-x="1100" 
d="M1067 0h-961l-73 137l657 711h-584v213h867l94 -143l-661 -705h661v-213z" />
    <glyph glyph-name="braceleft" unicode="{" horiz-adv-x="872" 
d="M682 -33q-101 0 -170 15t-111 48t-60.5 86t-18.5 126v313q0 93 -31.5 124.5t-140.5 31.5v120q71 0 106.5 11.5t49 43.5t13.5 99v299q0 102 34.5 161.5t112.5 86.5t216 27v-136q-70 0 -106.5 -11t-52 -39.5t-15.5 -84.5v-272q0 -97 -28.5 -157.5t-94.5 -90.5
q64 -28 92.5 -86.5t28.5 -155.5v-288q0 -77 38 -106.5t138 -29.5v-135z" />
    <glyph glyph-name="bar" unicode="|" horiz-adv-x="762" 
d="M475 -512h-188v2048h188v-2048z" />
    <glyph glyph-name="braceright" unicode="}" horiz-adv-x="872" 
d="M743 711q-108 0 -139 -31.5t-31 -124.5v-313q0 -102 -34.5 -161.5t-112 -86.5t-215.5 -27v135q101 0 137.5 29.5t36.5 106.5v288q0 94 29.5 154t93.5 88q-64 29 -92.5 89.5t-28.5 158.5v272q0 81 -35 108t-141 27v136q101 0 169.5 -15t110.5 -47t61 -83t19 -130v-299
q0 -65 14.5 -98t50 -44.5t107.5 -11.5v-120z" />
    <glyph glyph-name="asciitilde" unicode="~" horiz-adv-x="1821" 
d="M1452 479q-77 -82 -144 -128t-159 -46q-64 0 -116.5 15t-135.5 49.5t-123 48.5t-82 14q-72 0 -184 -125l-123 148q60 71 142.5 123.5t154.5 52.5q61 0 115 -16t126 -46t119 -44.5t95 -14.5q62 0 108 32.5t84 84.5z" />
    <glyph glyph-name="uni00A0" unicode="&#xa0;" horiz-adv-x="1821" 
 />
    <glyph glyph-name="exclamdown" unicode="&#xa1;" horiz-adv-x="721" 
d="M512 1419q0 -62 -43.5 -105.5t-103.5 -43.5q-61 0 -104.5 45t-43.5 104q0 61 43.5 105.5t104.5 44.5t104 -44t43 -106zM477 0h-227l43 1130h145z" />
    <glyph glyph-name="cent" unicode="&#xa2;" horiz-adv-x="1821" 
d="M1542 256q-81 -51 -151 -85.5t-140 -52t-168 -24.5v-190h-202v194q-145 17 -267.5 88.5t-194 189.5t-71.5 265q0 151 70 273t192 197.5t271 96.5v193h202v-193q118 -11 221.5 -60t219.5 -132l-125 -187q-143 126 -316 156v-670q116 16 189 43.5t174 92.5zM881 319v668
q-82 -6 -156 -56t-119 -125t-45 -157q0 -129 93 -216.5t227 -113.5z" />
    <glyph glyph-name="sterling" unicode="&#xa3;" horiz-adv-x="1821" 
d="M1528 948h-215q-1 77 -39.5 127.5t-101 74.5t-136.5 24q-93 0 -156.5 -34.5t-94.5 -100.5t-31 -162v-113h352v-203h-352v-342h721v-219h-1129v219h184v342h-184v203h184v168q0 149 70 247.5t189 144.5t268 46q119 0 226.5 -42t176 -127.5t68.5 -207.5v-45z" />
    <glyph glyph-name="currency" unicode="&#xa4;" horiz-adv-x="1821" 
d="M1464 39l-108 -109l-185 185q-122 -88 -262 -88q-42 0 -85.5 8.5t-88 28t-88.5 49.5l-184 -183l-107 109l183 184q-86 119 -86 256q0 72 20.5 132.5t65.5 123.5l-187 185l111 110l184 -186q66 47 127.5 67.5t134.5 20.5q135 0 256 -86l185 182l108 -108l-182 -183
q50 -72 69 -130.5t19 -127.5q-2 -72 -21 -130.5t-65 -125.5zM1182 479q0 74 -37 137t-99.5 99.5t-138.5 36.5q-74 0 -136 -36.5t-99 -99.5t-37 -137q0 -72 37 -136t101 -101t136 -37q73 0 136 37t100 101t37 136z" />
    <glyph glyph-name="yen" unicode="&#xa5;" horiz-adv-x="1554" 
d="M1485 1335l-408 -508h269v-137h-375l-92 -115v-38h467v-138h-465v-399h-213v399h-469v138h469v38l-90 115h-379v137h272l-401 508h252l454 -567l447 567h262z" />
    <glyph glyph-name="brokenbar" unicode="&#xa6;" horiz-adv-x="762" 
d="M475 666h-188v716h188v-716zM475 -358h-188v716h188v-716z" />
    <glyph glyph-name="section" unicode="&#xa7;" horiz-adv-x="1251" 
d="M1104 713q0 -108 -113 -195q96 -88 96 -223q0 -161 -133 -252.5t-356 -91.5q-122 0 -247.5 42.5t-215.5 129.5l78 174q105 -91 196 -130.5t191 -39.5q85 0 150.5 16.5t102 54.5t36.5 95q0 50 -40 83t-114 60l-313 119q-254 96 -254 315q0 58 32.5 114t75.5 91
q-69 75 -69 187q0 110 63.5 180t160.5 101.5t194 31.5q73 0 153 -18.5t155 -55.5t134 -94l-76 -174q-46 49 -110.5 86.5t-130.5 56.5t-121 19q-109 0 -164 -28t-55 -99q0 -46 36 -80t95 -58l313 -116q108 -39 179 -117t71 -184zM899 705q0 47 -30 77t-93 56l-348 141
q-61 -43 -61 -102q0 -92 157 -152l314 -119q27 18 44 45t17 54z" />
    <glyph glyph-name="dieresis" unicode="&#xa8;" 
d="M678 1200h-189v199h189v-199zM307 1200h-188v199h188v-199z" />
    <glyph glyph-name="copyright" unicode="&#xa9;" horiz-adv-x="1935" 
d="M1765 762q0 -216 -107 -399.5t-290.5 -290.5t-400.5 -107q-216 0 -399.5 107t-290.5 290.5t-107 399.5t107 399.5t290.5 290.5t399.5 107q217 0 400.5 -107t290.5 -290.5t107 -399.5zM1606 762q0 130 -49 247t-136 204t-205 136.5t-247 49.5q-130 0 -247 -49
t-205.5 -137.5t-137.5 -205t-49 -245.5q0 -128 49.5 -245t138 -206t204.5 -138.5t247 -49.5q171 0 318.5 86t233 232.5t85.5 320.5zM1384 535q-85 -83 -180.5 -133t-208.5 -50q-125 0 -233.5 52.5t-173 146.5t-64.5 217q0 119 62 215.5t168 149.5t229 53q117 0 221.5 -53.5
t169.5 -131.5l-123 -112q-44 57 -119 94t-153 37q-73 0 -137.5 -33t-103 -90.5t-38.5 -126.5q0 -74 40.5 -131.5t110 -89t148.5 -31.5q135 0 267 144z" />
    <glyph glyph-name="ordfeminine" unicode="&#xaa;" horiz-adv-x="1024" 
d="M860 623h-162v77q-35 -50 -91.5 -80t-164.5 -30q-88 0 -160 27.5t-115.5 87t-43.5 145.5q0 109 58.5 159.5t174.5 67.5q46 7 86 8.5t101 1.5l155 3q0 81 -53.5 110t-142.5 29q-148 0 -178 -84h-162q21 90 76.5 139.5t132 66.5t170.5 17q107 0 177.5 -29t106 -93.5
t35.5 -170.5v-452zM705 948h-226q-94 0 -144 -20.5t-50 -77.5q0 -59 51 -87t119 -28q117 0 180.5 55t69.5 158z" />
    <glyph glyph-name="guillemotleft" unicode="&#xab;" horiz-adv-x="1214" 
d="M1083 137h-204l-275 402l275 395h204l-235 -395zM608 137h-205l-274 402l274 395h205l-235 -395z" />
    <glyph glyph-name="logicalnot" unicode="&#xac;" horiz-adv-x="1821" 
d="M1397 199h-189v368h-784v191h973v-559z" />
    <glyph glyph-name="uni00AD" unicode="&#xad;" horiz-adv-x="1249" 
d="M983 410h-717v243h717v-243z" />
    <glyph glyph-name="registered" unicode="&#xae;" horiz-adv-x="1935" 
d="M1765 762q0 -216 -107 -399.5t-290 -290.5t-399 -107q-218 0 -401.5 107t-290.5 290.5t-107 399.5t107 399.5t290.5 290.5t399.5 107q217 0 400.5 -107t290.5 -290.5t107 -399.5zM1606 762q0 130 -49 247t-136 204t-205 136.5t-247 49.5q-130 0 -247 -49t-205.5 -137.5
t-137.5 -205t-49 -245.5q0 -128 49.5 -245t138.5 -206.5t204.5 -138.5t244.5 -49q172 0 320 86t233.5 232.5t85.5 320.5zM1374 375h-192l-166 299h-221v-299h-166v807h401q99 0 140.5 -8t84.5 -39q52 -32 79.5 -88.5t27.5 -118.5q0 -80 -43 -147.5t-121 -92.5zM1196 926
q0 88 -117 88h-284v-172h270q76 0 98 14q33 24 33 70z" />
    <glyph glyph-name="uni00AF" unicode="&#xaf;" horiz-adv-x="1024" 
d="M1024 1684h-1024v100h1024v-100z" />
    <glyph glyph-name="degree" unicode="&#xb0;" 
d="M651 1321q0 -105 -73.5 -179.5t-178.5 -74.5q-106 0 -180 74t-74 178q0 106 74 180t178 74q70 0 128 -34t92 -92t34 -126zM516 1321v-2q0 49 -34 84t-83 35q-50 0 -84 -34t-34 -83q0 -50 34.5 -84.5t81.5 -34.5q51 0 85 34t34 85z" />
    <glyph glyph-name="plusminus" unicode="&#xb1;" horiz-adv-x="1821" 
d="M1397 449h-391v-328h-191v328h-391v190h391v319h191v-319h391v-190zM1397 -193h-973v191h973v-191z" />
    <glyph glyph-name="twosuperior" unicode="&#xb2;" horiz-adv-x="1063" 
d="M940 1104q0 -70 -44 -119t-111 -75.5t-130 -28.5q-100 -4 -176.5 -18t-126 -50t-49.5 -100h619v-176h-818q-2 36 -4 60.5t-2 37.5q0 151 98 254.5t253 124.5q30 5 82.5 12t97.5 12q48 7 78 21t30 47q0 48 -62 67t-128 19q-73 0 -124 -8t-106.5 -28t-117.5 -50l-76 160
q84 41 151.5 64t132 30.5t156.5 7.5q96 0 181 -24.5t140.5 -83t55.5 -156.5z" />
    <glyph glyph-name="threesuperior" unicode="&#xb3;" horiz-adv-x="1063" 
d="M1004 776q0 -145 -153.5 -199.5t-328.5 -54.5q-84 0 -161.5 10.5t-153 36.5t-146.5 70l97 145q89 -49 173.5 -68.5t186.5 -19.5q115 0 197 16.5t82 69.5q0 73 -117 90q-27 6 -83 9.5t-146 3.5v162q43 0 116 6q176 13 176 75q0 43 -58 60.5t-118 17.5q-95 0 -163 -16
t-173 -60l-86 156q128 62 209 80t213 18q82 0 170.5 -22.5t149.5 -76.5t61 -142q0 -91 -90 -160q146 -78 146 -207z" />
    <glyph glyph-name="acute" unicode="&#xb4;" 
d="M582 1423l-217 -249h-187l164 249h240z" />
    <glyph glyph-name="uni00B5" unicode="&#xb5;" horiz-adv-x="1630" 
d="M1325 0h-199v111q-32 -43 -125.5 -94.5t-191.5 -51.5q-67 0 -129.5 20.5t-107.5 52.5t-60 64v-415h-211v1374h211v-645q0 -101 41.5 -153t105.5 -67.5t154 -15.5q144 0 223.5 52t79.5 184v645h209v-1061z" />
    <glyph glyph-name="paragraph" unicode="&#xb6;" horiz-adv-x="1706" 
d="M1530 0h-211v1331h-166v-1331h-217v621h-225q-115 0 -201.5 13.5t-165.5 63.5q-64 43 -105.5 101.5t-62 128.5t-20.5 143q0 103 40 198t117 161q47 40 100 62t105 29t125 7h887v-1528zM936 825v506h-293q-135 0 -199.5 -59.5t-64.5 -196.5q0 -64 25 -121t71 -86
q45 -23 97 -33t139 -10h225z" />
    <glyph glyph-name="uni00B7" unicode="&#xb7;" horiz-adv-x="758" 
d="M522 727q0 -60 -41.5 -103.5t-101.5 -43.5q-39 0 -72 20.5t-52 54.5t-19 72q0 60 41.5 103.5t101.5 43.5q39 0 72 -20.5t52 -54.5t19 -72z" />
    <glyph glyph-name="cedilla" unicode="&#xb8;" 
d="M655 -305q0 -106 -87.5 -150.5t-202.5 -44.5q-47 0 -80.5 5.5t-66 18.5t-77.5 38l52 112q43 -23 74.5 -32t101.5 -9q41 0 73.5 17t32.5 53q0 33 -29 49.5t-65 16.5q-32 0 -92 -17l-43 55l155 213h166l-121 -161q99 -2 154 -37.5t55 -126.5z" />
    <glyph glyph-name="onesuperior" unicode="&#xb9;" horiz-adv-x="1063" 
d="M629 547h-195v803h195v-803z" />
    <glyph glyph-name="ordmasculine" unicode="&#xba;" horiz-adv-x="1024" 
d="M963 975q0 -122 -62.5 -208.5t-163 -130.5t-217.5 -44t-218.5 46t-162.5 134.5t-61 212.5q0 117 61.5 204.5t163 133t211.5 45.5q85 0 166 -26t144.5 -76t101 -124.5t37.5 -166.5zM793 975q0 70 -39 124t-103 82.5t-133 28.5q-71 0 -133 -28t-99.5 -80t-37.5 -121
q0 -71 38 -123t101 -80t135 -28q113 0 192 60t79 165z" />
    <glyph glyph-name="guillemotright" unicode="&#xbb;" horiz-adv-x="1214" 
d="M1083 539l-274 -402h-205l236 402l-236 395h205zM610 539l-276 -402h-205l238 402l-238 395h205z" />
    <glyph glyph-name="onequarter" unicode="&#xbc;" horiz-adv-x="2542" 
d="M2230 197h-184v-197h-191v197h-540l-66 149l584 498h211v-482h186v-165zM1731 1470l-1129 -1552h-196l1126 1552h199zM547 547h-195v803h195v-803zM1855 362v285l-354 -285h354z" />
    <glyph glyph-name="onehalf" unicode="&#xbd;" horiz-adv-x="2542" 
d="M2245 567q0 -69 -44.5 -119t-111 -76t-129.5 -28q-98 -4 -175 -17.5t-127 -49.5t-50 -101h618v-176h-817q-2 36 -4 61t-2 37q0 152 96.5 254.5t253.5 124.5q30 5 55 8.5t60 8t65 8.5q48 7 78.5 20t30.5 47q0 48 -62 67t-129 19q-73 0 -122.5 -7.5t-100.5 -25.5t-125 -53
l-76 160q82 40 151 63.5t133.5 31t156.5 7.5q96 0 181 -24.5t140.5 -83t55.5 -156.5zM1710 1470l-1128 -1552h-197l1126 1552h199zM516 547h-194v803h194v-803z" />
    <glyph glyph-name="threequarters" unicode="&#xbe;" horiz-adv-x="2542" 
d="M2415 197h-185v-197h-190v197h-541l-65 149l583 498h211v-482h187v-165zM1997 1470l-1129 -1552h-196l1126 1552h199zM1034 776q0 -145 -153.5 -199.5t-327.5 -54.5q-84 0 -161.5 10.5t-153 36.5t-146.5 70l96 145q59 -33 117.5 -52.5t117.5 -27.5t126 -8
q115 0 196.5 16.5t81.5 69.5q0 73 -116 90q-27 6 -83 9.5t-147 3.5v162q44 0 117 6q176 13 176 75q0 43 -58 60.5t-118 17.5q-95 0 -163 -16t-173 -60l-86 156q128 62 209 80t213 18q81 0 169.5 -22.5t150 -76.5t61.5 -142q0 -91 -90 -160q145 -78 145 -207zM2040 362v285
l-354 -285h354z" />
    <glyph glyph-name="questiondown" unicode="&#xbf;" horiz-adv-x="1214" 
d="M891 1423q0 -62 -43.5 -105.5t-104.5 -43.5q-60 0 -103.5 45t-43.5 104q0 61 43.5 105.5t103.5 44.5q62 0 105 -44t43 -106zM1085 4q-96 -26 -187 -33.5t-216 -7.5q-532 0 -532 402q0 117 59 207.5t164 170.5l207 156q49 40 49 117v133h231v-152q0 -94 -17 -138.5
t-67 -82.5l-217 -168q-70 -52 -110.5 -110.5t-40.5 -130.5q0 -82 55 -125t131.5 -56.5t163.5 -13.5q177 0 327 43v-211z" />
    <glyph glyph-name="Agrave" unicode="&#xc0;" horiz-adv-x="1706" 
d="M1659 0h-250l-219 498h-686l-228 -498h-241l694 1526h246zM1090 723l-242 532l-242 -532h484zM1030 1666h-188l-215 249h239z" />
    <glyph glyph-name="Aacute" unicode="&#xc1;" horiz-adv-x="1706" 
d="M1659 0h-250l-219 498h-686l-228 -498h-241l694 1526h246zM1090 723l-242 532l-242 -532h484zM1073 1915l-217 -249h-187l164 249h240z" />
    <glyph glyph-name="Acircumflex" unicode="&#xc2;" horiz-adv-x="1706" 
d="M1659 0h-250l-219 498h-686l-228 -498h-241l694 1526h246zM1090 723l-242 532l-242 -532h484zM1151 1666h-182l-123 147l-110 -147h-181l181 253h231z" />
    <glyph glyph-name="Atilde" unicode="&#xc3;" horiz-adv-x="1706" 
d="M1659 0h-250l-219 498h-686l-228 -498h-241l694 1526h246zM1090 723l-242 532l-242 -532h484zM1171 1896q-5 -106 -41 -163.5t-133 -57.5q-61 0 -103.5 9t-109.5 26.5t-90 17.5q-55 0 -55 -63h-154q0 69 17 118.5t58.5 76t115.5 26.5q50 0 144 -23.5t132 -23.5
q68 0 68 57h151z" />
    <glyph glyph-name="Adieresis" unicode="&#xc4;" horiz-adv-x="1706" 
d="M1659 0h-250l-219 498h-686l-228 -498h-241l694 1526h246zM1090 723l-242 532l-242 -532h484zM1122 1692h-189v199h189v-199zM751 1692h-188v199h188v-199z" />
    <glyph glyph-name="Aring" unicode="&#xc5;" horiz-adv-x="1706" 
d="M1659 0h-250l-219 498h-686l-228 -498h-241l694 1526h246zM1090 723l-242 532l-242 -532h484zM1077 1898q0 -63 -31.5 -116.5t-85 -85t-117.5 -31.5q-65 0 -118.5 31.5t-85 85t-31.5 116.5t31.5 116.5t84.5 85t117 31.5q65 0 119 -32t85.5 -85t31.5 -116zM942 1898h2
q0 20 -8 39.5t-22.5 33.5t-32.5 21.5t-38 7.5q-43 0 -73.5 -29.5t-30.5 -72.5q0 -39 30.5 -69.5t71.5 -30.5q28 0 51 13.5t36.5 36.5t13.5 50z" />
    <glyph glyph-name="AE" unicode="&#xc6;" horiz-adv-x="2656" 
d="M2517 0h-1298v502h-574l-369 -502h-241l1149 1528h1292v-225h-1034v-400h522v-221h-522v-459h1075v-223zM1219 727v569l-412 -569h412z" />
    <glyph glyph-name="Ccedilla" unicode="&#xc7;" horiz-adv-x="1896" 
d="M1769 274q-71 -84 -129 -129.5t-157 -91.5q-91 -41 -158 -57.5t-176 -28.5l-80 -108q207 0 207 -156q0 -203 -295 -203q-32 0 -63.5 4t-52 10.5t-51.5 21.5t-50 26l51 112q71 -43 172 -43q40 0 75.5 17t35.5 53q0 35 -29.5 51.5t-64.5 16.5q-42 0 -95 -17l-39 55l115 158
q-228 23 -408 123t-282 274t-102 406q0 170 61 315t173.5 254.5t259 168.5t314.5 59q109 0 208.5 -21t194 -62t180 -98.5t161.5 -132.5l-166 -141q-90 74 -176.5 125t-181 78.5t-201.5 27.5q-167 0 -306 -72.5t-220.5 -203.5t-81.5 -299q0 -179 89 -310t240 -199.5
t326 -68.5q139 0 272 48q80 29 141 74t142 124z" />
    <glyph glyph-name="Egrave" unicode="&#xc8;" horiz-adv-x="1745" 
d="M1606 0h-1297v1528h1258v-225h-1035v-400h521v-221h-521v-459h1074v-223zM1133 1666h-188l-215 249h239z" />
    <glyph glyph-name="Eacute" unicode="&#xc9;" horiz-adv-x="1745" 
d="M1606 0h-1297v1528h1258v-225h-1035v-400h521v-221h-521v-459h1074v-223zM1196 1915l-217 -249h-187l164 249h240z" />
    <glyph glyph-name="Ecircumflex" unicode="&#xca;" horiz-adv-x="1745" 
d="M1606 0h-1297v1528h1258v-225h-1035v-400h521v-221h-521v-459h1074v-223zM1249 1666h-182l-123 147l-110 -147h-181l181 253h231z" />
    <glyph glyph-name="Edieresis" unicode="&#xcb;" horiz-adv-x="1745" 
d="M1606 0h-1297v1528h1258v-225h-1035v-400h521v-221h-521v-459h1074v-223zM1210 1692h-189v199h189v-199zM839 1692h-188v199h188v-199z" />
    <glyph glyph-name="Igrave" unicode="&#xcc;" 
d="M512 0h-219v1528h219v-1528zM580 1666h-188l-215 249h239z" />
    <glyph glyph-name="Iacute" unicode="&#xcd;" 
d="M512 0h-219v1528h219v-1528zM623 1915l-217 -249h-187l164 249h240z" />
    <glyph glyph-name="Icircumflex" unicode="&#xce;" 
d="M512 0h-219v1528h219v-1528zM698 1666h-182l-123 147l-110 -147h-181l181 253h231z" />
    <glyph glyph-name="Idieresis" unicode="&#xcf;" 
d="M512 0h-219v1528h219v-1528zM678 1692h-189v199h189v-199zM307 1692h-188v199h188v-199z" />
    <glyph glyph-name="Eth" unicode="&#xd0;" horiz-adv-x="1896" 
d="M1767 770q0 -157 -61 -306.5t-166 -260.5q-101 -110 -216 -156.5t-271 -46.5h-744v684h-268v221h268v623h744q97 0 175 -16.5t154 -59.5q115 -65 202 -173t135 -241t48 -268zM1542 754q0 150 -57.5 276t-168 200.5t-263.5 74.5h-525v-400h455v-221h-455v-461h525
q145 0 256 72.5t172 194t61 264.5z" />
    <glyph glyph-name="Ntilde" unicode="&#xd1;" horiz-adv-x="1972" 
d="M1671 0h-221l-922 1163v-1163h-219v1528h217l920 -1168v1168h225v-1528zM1321 1896q-5 -106 -41 -163.5t-133 -57.5q-61 0 -103.5 9t-109.5 26.5t-90 17.5q-55 0 -55 -63h-154q0 69 17 118.5t58.5 76t115.5 26.5q50 0 144 -23.5t132 -23.5q68 0 68 57h151z" />
    <glyph glyph-name="Ograve" unicode="&#xd2;" horiz-adv-x="2048" 
d="M1845 762q0 -164 -65.5 -312t-180.5 -257t-265 -169.5t-312 -60.5q-227 0 -416 109.5t-297 297.5t-108 416q0 219 113.5 399.5t303 284t406.5 103.5q222 0 411 -107t299.5 -294.5t110.5 -409.5zM1624 774q0 164 -81.5 295t-219.5 205t-301 74q-167 0 -305 -75
t-217.5 -210t-79.5 -303q0 -160 83.5 -291.5t223.5 -206t297 -74.5q122 0 230.5 44t193 125.5t130.5 187.5t46 229zM1194 1666h-188l-215 249h239z" />
    <glyph glyph-name="Oacute" unicode="&#xd3;" horiz-adv-x="2048" 
d="M1845 762q0 -164 -65.5 -312t-180.5 -257t-265 -169.5t-312 -60.5q-227 0 -416 109.5t-297 297.5t-108 416q0 219 113.5 399.5t303 284t406.5 103.5q222 0 411 -107t299.5 -294.5t110.5 -409.5zM1624 774q0 164 -81.5 295t-219.5 205t-301 74q-167 0 -305 -75
t-217.5 -210t-79.5 -303q0 -160 83.5 -291.5t223.5 -206t297 -74.5q122 0 230.5 44t193 125.5t130.5 187.5t46 229zM1278 1915l-217 -249h-187l164 249h240z" />
    <glyph glyph-name="Ocircumflex" unicode="&#xd4;" horiz-adv-x="2048" 
d="M1845 762q0 -164 -65.5 -312t-180.5 -257t-265 -169.5t-312 -60.5q-227 0 -416 109.5t-297 297.5t-108 416q0 219 113.5 399.5t303 284t406.5 103.5q222 0 411 -107t299.5 -294.5t110.5 -409.5zM1624 774q0 164 -81.5 295t-219.5 205t-301 74q-167 0 -305 -75
t-217.5 -210t-79.5 -303q0 -160 83.5 -291.5t223.5 -206t297 -74.5q122 0 230.5 44t193 125.5t130.5 187.5t46 229zM1327 1666h-182l-123 147l-110 -147h-181l181 253h231z" />
    <glyph glyph-name="Otilde" unicode="&#xd5;" horiz-adv-x="2048" 
d="M1845 762q0 -164 -65.5 -312t-180.5 -257t-265 -169.5t-312 -60.5q-227 0 -416 109.5t-297 297.5t-108 416q0 219 113.5 399.5t303 284t406.5 103.5q222 0 411 -107t299.5 -294.5t110.5 -409.5zM1624 774q0 164 -81.5 295t-219.5 205t-301 74q-167 0 -305 -75
t-217.5 -210t-79.5 -303q0 -160 83.5 -291.5t223.5 -206t297 -74.5q122 0 230.5 44t193 125.5t130.5 187.5t46 229zM1356 1896q-5 -106 -41 -163.5t-133 -57.5q-61 0 -103.5 9t-109.5 26.5t-90 17.5q-55 0 -55 -63h-154q0 69 17 118.5t58.5 76t115.5 26.5q50 0 144 -23.5
t132 -23.5q68 0 68 57h151z" />
    <glyph glyph-name="Odieresis" unicode="&#xd6;" horiz-adv-x="2048" 
d="M1845 762q0 -164 -65.5 -312t-180.5 -257t-265 -169.5t-312 -60.5q-227 0 -416 109.5t-297 297.5t-108 416q0 219 113.5 399.5t303 284t406.5 103.5q222 0 411 -107t299.5 -294.5t110.5 -409.5zM1624 774q0 164 -81.5 295t-219.5 205t-301 74q-167 0 -305 -75
t-217.5 -210t-79.5 -303q0 -160 83.5 -291.5t223.5 -206t297 -74.5q122 0 230.5 44t193 125.5t130.5 187.5t46 229zM1307 1692h-189v199h189v-199zM936 1692h-188v199h188v-199z" />
    <glyph glyph-name="multiply" unicode="&#xd7;" horiz-adv-x="1821" 
d="M1343 776l-299 -297l295 -295l-135 -135l-295 295l-297 -299l-135 135l299 297l-295 295l135 135l295 -295l297 299z" />
    <glyph glyph-name="Oslash" unicode="&#xd8;" horiz-adv-x="2048" 
d="M1845 762q0 -163 -65.5 -310.5t-180 -257t-263.5 -170.5t-312 -61q-127 0 -246 36t-225 107l-207 -231l-137 125l205 227q-55 64 -93.5 128.5t-65 132.5t-40.5 142t-14 150q0 166 64.5 312t179 254t263.5 167.5t314 59.5q134 0 248 -34t225 -109l174 192l137 -125
l-170 -190q101 -113 155 -254.5t54 -290.5zM1624 774q0 212 -135 369l-784 -869q145 -86 319 -86q122 0 230.5 44t193 125.5t130.5 187.5t46 229zM1346 1262q-85 51 -153 68.5t-173 17.5q-163 0 -301 -74.5t-218.5 -207t-80.5 -296.5q0 -103 36 -203t105 -176z" />
    <glyph glyph-name="Ugrave" unicode="&#xd9;" horiz-adv-x="1972" 
d="M1659 580q0 -136 -20 -219t-89 -171q-89 -118 -244.5 -169.5t-334.5 -51.5q-115 0 -223 25.5t-200.5 82t-152.5 144.5q-36 53 -55.5 110.5t-25 114.5t-5.5 134v948h221v-948q0 -94 16 -157t70 -118q113 -112 390 -112q148 0 242 35t143 120t49 232v948h219v-948z
M1153 1666h-188l-215 249h239z" />
    <glyph glyph-name="Uacute" unicode="&#xda;" horiz-adv-x="1972" 
d="M1659 580q0 -136 -20 -219t-89 -171q-89 -118 -244.5 -169.5t-334.5 -51.5q-115 0 -223 25.5t-200.5 82t-152.5 144.5q-36 53 -55.5 110.5t-25 114.5t-5.5 134v948h221v-948q0 -94 16 -157t70 -118q113 -112 390 -112q148 0 242 35t143 120t49 232v948h219v-948z
M1257 1915l-217 -249h-187l164 249h240z" />
    <glyph glyph-name="Ucircumflex" unicode="&#xdb;" horiz-adv-x="1972" 
d="M1659 580q0 -136 -20 -219t-89 -171q-89 -118 -244.5 -169.5t-334.5 -51.5q-115 0 -223 25.5t-200.5 82t-152.5 144.5q-36 53 -55.5 110.5t-25 114.5t-5.5 134v948h221v-948q0 -94 16 -157t70 -118q113 -112 390 -112q148 0 242 35t143 120t49 232v948h219v-948z
M1276 1666h-182l-123 147l-110 -147h-181l181 253h231z" />
    <glyph glyph-name="Udieresis" unicode="&#xdc;" horiz-adv-x="1972" 
d="M1659 580q0 -136 -20 -219t-89 -171q-89 -118 -244.5 -169.5t-334.5 -51.5q-115 0 -223 25.5t-200.5 82t-152.5 144.5q-36 53 -55.5 110.5t-25 114.5t-5.5 134v948h221v-948q0 -94 16 -157t70 -118q113 -112 390 -112q148 0 242 35t143 120t49 232v948h219v-948z
M1253 1692h-189v199h189v-199zM882 1692h-188v199h188v-199z" />
    <glyph glyph-name="Yacute" unicode="&#xdd;" horiz-adv-x="1554" 
d="M1522 1528l-631 -866v-662h-221v662l-621 866h268l467 -647l461 647h277zM1059 1915l-217 -249h-187l164 249h240z" />
    <glyph glyph-name="Thorn" unicode="&#xde;" horiz-adv-x="1782" 
d="M1647 784q0 -131 -56 -232.5t-157.5 -155.5t-233.5 -54h-663v-342h-224v1528h224v-309h663q204 0 325.5 -116.5t121.5 -318.5zM1425 782q0 113 -56 163t-169 50h-663v-430h663q108 0 166.5 53.5t58.5 163.5z" />
    <glyph glyph-name="germandbls" unicode="&#xdf;" horiz-adv-x="2810" 
d="M2685 319q0 -137 -83.5 -216t-207.5 -109.5t-260 -30.5t-225.5 15.5t-173.5 55t-197 118.5l98 190q109 -68 189 -102.5t168 -48t211 -13.5q96 0 181 35.5t85 116.5q0 97 -160 106q-35 2 -96.5 3.5t-114.5 2.5l-106 2q-101 5 -190 41.5t-143 107.5t-54 177q0 124 75 196.5
t188.5 101t233.5 28.5q142 0 260 -33.5t252 -106.5l-96 -188q-114 60 -225 88.5t-242 28.5q-82 0 -157.5 -27.5t-75.5 -95.5q0 -56 56.5 -77t131.5 -26q92 -2 150 -2.5t127 -3.5q178 -7 289.5 -85.5t111.5 -248.5zM1272 319q0 -137 -83.5 -216t-207.5 -109.5t-260 -30.5
t-225.5 15.5t-173.5 55t-197 118.5l98 190q109 -68 189 -102.5t168 -48t211 -13.5q96 0 181 35.5t85 116.5q0 97 -160 106q-35 2 -96.5 3.5t-114.5 2.5l-106 2q-101 5 -190 41.5t-143 107.5t-54 177q0 124 75 196.5t188.5 101t233.5 28.5q142 0 260 -33.5t252 -106.5
l-96 -188q-114 60 -225 88.5t-242 28.5q-82 0 -157.5 -27.5t-75.5 -95.5q0 -94 188 -103q62 -2 100 -2.5l76 -1t100 -2.5q114 -5 204 -38.5t144 -107.5t54 -188z" />
    <glyph glyph-name="agrave" unicode="&#xe0;" horiz-adv-x="1403" 
d="M1348 0h-242l-107 223h-620l-107 -223h-241l514 1061h282zM893 434l-205 420l-205 -420h410zM887 1189h-188l-215 249h239z" />
    <glyph glyph-name="aacute" unicode="&#xe1;" horiz-adv-x="1403" 
d="M1348 0h-242l-107 223h-620l-107 -223h-241l514 1061h282zM893 434l-205 420l-205 -420h410zM868 1438l-217 -249h-187l164 249h240z" />
    <glyph glyph-name="acircumflex" unicode="&#xe2;" horiz-adv-x="1403" 
d="M1348 0h-242l-107 223h-620l-107 -223h-241l514 1061h282zM893 434l-205 420l-205 -420h410zM977 1189h-182l-123 147l-110 -147h-181l181 253h231z" />
    <glyph glyph-name="atilde" unicode="&#xe3;" horiz-adv-x="1403" 
d="M1348 0h-242l-107 223h-620l-107 -223h-241l514 1061h282zM893 434l-205 420l-205 -420h410zM1028 1419q-5 -106 -41 -163.5t-133 -57.5q-61 0 -103.5 9t-109.5 26.5t-90 17.5q-55 0 -55 -63h-154q0 69 17 118.5t58.5 76t115.5 26.5q50 0 144 -23.5t132 -23.5q68 0 68 57
h151z" />
    <glyph glyph-name="adieresis" unicode="&#xe4;" horiz-adv-x="1403" 
d="M1348 0h-242l-107 223h-620l-107 -223h-241l514 1061h282zM893 434l-205 420l-205 -420h410zM963 1214h-189v199h189v-199zM592 1214h-188v199h188v-199z" />
    <glyph glyph-name="aring" unicode="&#xe5;" horiz-adv-x="1403" 
d="M1348 0h-242l-107 223h-620l-107 -223h-241l514 1061h282zM893 434l-205 420l-205 -420h410zM911 1407q0 -63 -31.5 -116.5t-85 -85t-117.5 -31.5q-65 0 -118.5 31.5t-85 85t-31.5 116.5t31.5 116.5t84.5 85t117 31.5q65 0 119 -32t85.5 -85t31.5 -116zM776 1407h2
q0 20 -8 39.5t-22.5 33.5t-32.5 21.5t-38 7.5q-43 0 -73.5 -29.5t-30.5 -72.5q0 -39 30.5 -69.5t71.5 -30.5q28 0 51 13.5t36.5 36.5t13.5 50z" />
    <glyph glyph-name="ae" unicode="&#xe6;" horiz-adv-x="2085" 
d="M1960 0h-963v223h-520l-190 -223h-238l924 1061h962v-213h-727v-195h385v-211h-385v-229h752v-213zM997 434v404l-340 -404h340z" />
    <glyph glyph-name="ccedilla" unicode="&#xe7;" horiz-adv-x="1518" 
d="M1391 131q-85 -54 -150.5 -86t-133.5 -48.5t-173 -27.5l-82 -110q209 0 209 -156q0 -114 -86.5 -158.5t-210.5 -44.5q-66 0 -108.5 13t-106.5 49l49 112q71 -43 172 -43q40 0 75.5 16.5t35.5 53.5q0 33 -29 50.5t-64 17.5q-41 0 -94 -17l-41 55l117 162
q-156 14 -287.5 82t-208.5 186t-77 279q0 173 85.5 305t231.5 203.5t315 71.5q164 0 280 -47.5t263 -157.5l-125 -186q-101 88 -199.5 131t-222.5 43q-101 0 -197.5 -43.5t-157 -124.5t-60.5 -185q0 -106 62 -186.5t160.5 -121t203.5 -40.5q97 0 170 15t134.5 45t153.5 90z
" />
    <glyph glyph-name="egrave" unicode="&#xe8;" horiz-adv-x="1403" 
d="M1278 0h-963v1061h938v-213h-729v-195h385v-211h-385v-229h754v-213zM948 1189h-188l-215 249h239z" />
    <glyph glyph-name="eacute" unicode="&#xe9;" horiz-adv-x="1403" 
d="M1278 0h-963v1061h938v-213h-729v-195h385v-211h-385v-229h754v-213zM1032 1438l-217 -249h-187l164 249h240z" />
    <glyph glyph-name="ecircumflex" unicode="&#xea;" horiz-adv-x="1403" 
d="M1278 0h-963v1061h938v-213h-729v-195h385v-211h-385v-229h754v-213zM1075 1189h-182l-123 147l-110 -147h-181l181 253h231z" />
    <glyph glyph-name="edieresis" unicode="&#xeb;" horiz-adv-x="1403" 
d="M1278 0h-963v1061h938v-213h-729v-195h385v-211h-385v-229h754v-213zM1067 1214h-189v199h189v-199zM696 1214h-188v199h188v-199z" />
    <glyph glyph-name="igrave" unicode="&#xec;" 
d="M504 0h-209v1061h209v-1061zM559 1189h-188l-215 249h239z" />
    <glyph glyph-name="iacute" unicode="&#xed;" 
d="M504 0h-209v1061h209v-1061zM643 1438l-217 -249h-187l164 249h240z" />
    <glyph glyph-name="icircumflex" unicode="&#xee;" 
d="M504 0h-209v1061h209v-1061zM698 1189h-182l-123 147l-110 -147h-181l181 253h231z" />
    <glyph glyph-name="idieresis" unicode="&#xef;" 
d="M504 0h-209v1061h209v-1061zM678 1214h-189v199h189v-199zM307 1214h-188v199h188v-199z" />
    <glyph glyph-name="eth" unicode="&#xf0;" horiz-adv-x="1554" 
d="M1421 539q0 -81 -19 -156.5t-59 -143.5t-96 -118q-80 -73 -161 -97t-201 -24h-576v451h-178v190h178v420h576q80 0 126 -5t92 -20.5t103 -54.5q107 -72 161 -189t54 -253zM1206 535q0 152 -84.5 232.5t-236.5 80.5h-355v-207h328v-190h-328v-238h355q101 0 173 38
t110 110t38 174z" />
    <glyph glyph-name="ntilde" unicode="&#xf1;" horiz-adv-x="1630" 
d="M1323 0h-211l-590 719v-719h-211v1061h211l590 -717v717h211v-1061zM1157 1419q-5 -106 -41 -163.5t-133 -57.5q-61 0 -103.5 9t-109.5 26.5t-90 17.5q-55 0 -55 -63h-154q0 69 17 118.5t58.5 76t115.5 26.5q50 0 144 -23.5t132 -23.5q68 0 68 57h151z" />
    <glyph glyph-name="ograve" unicode="&#xf2;" horiz-adv-x="1706" 
d="M1503 541q0 -130 -52.5 -237t-146.5 -183.5t-213 -116t-243 -39.5q-170 0 -319 69t-239.5 199.5t-90.5 301.5q0 173 91.5 300t241 194t318.5 67q126 0 244 -35t210.5 -105.5t145.5 -176t53 -238.5zM1288 539q0 113 -63.5 189.5t-162.5 113.5t-210 37q-81 0 -159 -20.5
t-141.5 -64t-100.5 -110.5t-37 -154q0 -113 63.5 -192t164.5 -117.5t212 -38.5q79 0 156 23t140 69t100.5 114t37.5 151zM989 1189h-188l-215 249h239z" />
    <glyph glyph-name="oacute" unicode="&#xf3;" horiz-adv-x="1706" 
d="M1503 541q0 -130 -52.5 -237t-146.5 -183.5t-213 -116t-243 -39.5q-170 0 -319 69t-239.5 199.5t-90.5 301.5q0 173 91.5 300t241 194t318.5 67q126 0 244 -35t210.5 -105.5t145.5 -176t53 -238.5zM1288 539q0 113 -63.5 189.5t-162.5 113.5t-210 37q-81 0 -159 -20.5
t-141.5 -64t-100.5 -110.5t-37 -154q0 -113 63.5 -192t164.5 -117.5t212 -38.5q79 0 156 23t140 69t100.5 114t37.5 151zM1073 1438l-217 -249h-187l164 249h240z" />
    <glyph glyph-name="ocircumflex" unicode="&#xf4;" horiz-adv-x="1706" 
d="M1503 541q0 -130 -52.5 -237t-146.5 -183.5t-213 -116t-243 -39.5q-170 0 -319 69t-239.5 199.5t-90.5 301.5q0 173 91.5 300t241 194t318.5 67q126 0 244 -35t210.5 -105.5t145.5 -176t53 -238.5zM1288 539q0 113 -63.5 189.5t-162.5 113.5t-210 37q-81 0 -159 -20.5
t-141.5 -64t-100.5 -110.5t-37 -154q0 -113 63.5 -192t164.5 -117.5t212 -38.5q79 0 156 23t140 69t100.5 114t37.5 151zM1147 1189h-182l-123 147l-110 -147h-181l181 253h231z" />
    <glyph glyph-name="otilde" unicode="&#xf5;" horiz-adv-x="1706" 
d="M1503 541q0 -130 -52.5 -237t-146.5 -183.5t-213 -116t-243 -39.5q-170 0 -319 69t-239.5 199.5t-90.5 301.5q0 173 91.5 300t241 194t318.5 67q126 0 244 -35t210.5 -105.5t145.5 -176t53 -238.5zM1288 539q0 113 -63.5 189.5t-162.5 113.5t-210 37q-81 0 -159 -20.5
t-141.5 -64t-100.5 -110.5t-37 -154q0 -113 63.5 -192t164.5 -117.5t212 -38.5q79 0 156 23t140 69t100.5 114t37.5 151zM1184 1419q-5 -106 -41 -163.5t-133 -57.5q-61 0 -103.5 9t-109.5 26.5t-90 17.5q-55 0 -55 -63h-154q0 69 17 118.5t58.5 76t115.5 26.5
q50 0 144 -23.5t132 -23.5q68 0 68 57h151z" />
    <glyph glyph-name="odieresis" unicode="&#xf6;" horiz-adv-x="1706" 
d="M1503 541q0 -130 -52.5 -237t-146.5 -183.5t-213 -116t-243 -39.5q-170 0 -319 69t-239.5 199.5t-90.5 301.5q0 173 91.5 300t241 194t318.5 67q126 0 244 -35t210.5 -105.5t145.5 -176t53 -238.5zM1288 539q0 113 -63.5 189.5t-162.5 113.5t-210 37q-81 0 -159 -20.5
t-141.5 -64t-100.5 -110.5t-37 -154q0 -113 63.5 -192t164.5 -117.5t212 -38.5q79 0 156 23t140 69t100.5 114t37.5 151zM1128 1214h-189v199h189v-199zM757 1214h-188v199h188v-199z" />
    <glyph glyph-name="divide" unicode="&#xf7;" horiz-adv-x="1821" 
d="M1044 834q0 -57 -38.5 -96.5t-94.5 -39.5q-55 0 -95 39t-40 94q0 56 39 96t94 40q57 0 96 -39t39 -94zM1397 383h-973v190h973v-190zM1044 123v2q0 -57 -39 -96t-94 -39t-95 39t-40 94q0 57 39 96t94 39q57 0 96 -39t39 -96z" />
    <glyph glyph-name="oslash" unicode="&#xf8;" horiz-adv-x="1706" 
d="M1503 539q0 -128 -52.5 -235t-147.5 -184t-213 -116t-240 -39q-103 0 -167 14.5t-165 59.5l-168 -191l-119 115l150 166q-83 72 -132.5 184.5t-49.5 223.5q0 172 91.5 298.5t240.5 193.5t317 67q101 0 173.5 -15t160.5 -55l153 170l119 -115l-129 -143q86 -78 132 -181
t46 -218zM1288 539q0 137 -108 235l-506 -563q100 -29 178 -29q111 0 210.5 41t162.5 122.5t63 193.5zM1028 850q-100 29 -174 29q-108 0 -210 -37.5t-166 -115t-64 -191.5q0 -69 29 -132.5t81 -113.5z" />
    <glyph glyph-name="ugrave" unicode="&#xf9;" horiz-adv-x="1630" 
d="M1325 416q0 -96 -15 -158.5t-65 -124.5q-49 -60 -121 -97.5t-158 -54t-165 -16.5q-231 0 -365.5 111.5t-134.5 339.5v645h211v-645q0 -103 40 -154.5t106.5 -66.5t172.5 -15q49 0 107 12t98 35q46 26 63 65.5t17 123.5v645h209v-645zM969 1189h-188l-215 249h239z" />
    <glyph glyph-name="uacute" unicode="&#xfa;" horiz-adv-x="1630" 
d="M1325 416q0 -96 -15 -158.5t-65 -124.5q-49 -60 -121 -97.5t-158 -54t-165 -16.5q-231 0 -365.5 111.5t-134.5 339.5v645h211v-645q0 -103 40 -154.5t106.5 -66.5t172.5 -15q49 0 107 12t98 35q46 26 63 65.5t17 123.5v645h209v-645zM1073 1438l-217 -249h-187l164 249
h240z" />
    <glyph glyph-name="ucircumflex" unicode="&#xfb;" horiz-adv-x="1630" 
d="M1325 416q0 -96 -15 -158.5t-65 -124.5q-49 -60 -121 -97.5t-158 -54t-165 -16.5q-231 0 -365.5 111.5t-134.5 339.5v645h211v-645q0 -103 40 -154.5t106.5 -66.5t172.5 -15q49 0 107 12t98 35q46 26 63 65.5t17 123.5v645h209v-645zM1114 1189h-182l-123 147l-110 -147
h-181l181 253h231z" />
    <glyph glyph-name="udieresis" unicode="&#xfc;" horiz-adv-x="1630" 
d="M1325 416q0 -96 -15 -158.5t-65 -124.5q-49 -60 -121 -97.5t-158 -54t-165 -16.5q-231 0 -365.5 111.5t-134.5 339.5v645h211v-645q0 -103 40 -154.5t106.5 -66.5t172.5 -15q49 0 107 12t98 35q46 26 63 65.5t17 123.5v645h209v-645zM1092 1214h-189v199h189v-199z
M721 1214h-188v199h188v-199z" />
    <glyph glyph-name="yacute" unicode="&#xfd;" horiz-adv-x="1176" 
d="M1145 1061l-438 -633v-428h-209v428l-447 633h266l283 -418l291 418h254zM922 1438l-217 -249h-187l164 249h240z" />
    <glyph glyph-name="thorn" unicode="&#xfe;" horiz-adv-x="1442" 
d="M1323 545q0 -69 -24.5 -133.5t-69.5 -112.5q-57 -61 -122 -78.5t-167 -17.5h-428v-203h-209v1061h209v-182h428q115 0 165 -13.5t103 -60.5q55 -48 85 -116.5t30 -143.5zM1108 547q0 71 -45 96t-123 25h-428v-254h428q84 0 126 26.5t42 106.5z" />
    <glyph glyph-name="ydieresis" unicode="&#xff;" horiz-adv-x="1176" 
d="M1145 1061l-438 -633v-428h-209v428l-447 633h266l283 -418l291 418h254zM887 1214h-189v199h189v-199zM516 1214h-188v199h188v-199z" />
    <glyph glyph-name="dotlessi" unicode="&#x131;" 
d="M504 0h-209v1061h209v-1061z" />
    <glyph glyph-name="Lslash" unicode="&#x141;" horiz-adv-x="1518" 
d="M1473 0h-1154v608l-157 -102l-101 141l258 182v711h224v-555l282 199l101 -142l-383 -278v-541h930v-223z" />
    <glyph glyph-name="lslash" unicode="&#x142;" horiz-adv-x="1176" 
d="M1124 0h-823v377l-92 -58l-92 136l184 131v475h219v-320l160 107l92 -135l-252 -181v-315h604v-217z" />
    <glyph glyph-name="OE" unicode="&#x152;" horiz-adv-x="2693" 
d="M2554 0h-1264q-21 0 -78 -12.5t-93 -18.5t-95 -6q-172 0 -324.5 60.5t-263.5 170t-173 260t-62 324.5q0 173 62.5 320.5t176 254t266 163.5t328.5 57q49 0 104 -9t109 -21.5t64 -12.5h1204v-225h-1034v-400h520v-221h-520v-461h1073v-223zM1257 233v1072q-69 25 -119 34
t-118 9q-171 0 -307.5 -70.5t-214.5 -202.5t-78 -305q0 -132 44.5 -239t128 -185.5t192.5 -118t239 -39.5q112 0 233 45z" />
    <glyph glyph-name="oe" unicode="&#x153;" horiz-adv-x="2122" 
d="M1997 0h-897q-13 0 -67.5 -11.5t-93.5 -17.5t-91 -6q-187 0 -334.5 68t-231 196.5t-83.5 302.5q0 183 86 309t238.5 188.5t353.5 62.5q55 0 128.5 -15.5t96.5 -15.5h870v-213h-729v-195h385v-211h-385v-229h754v-213zM1047 205v653q-101 21 -173 21q-136 0 -237 -34.5
t-158 -111.5t-57 -201q0 -92 33.5 -158t96 -109.5t142.5 -63t180 -19.5q87 0 173 23z" />
    <glyph glyph-name="Scaron" unicode="&#x160;" horiz-adv-x="1706" 
d="M1581 446q0 -171 -112 -280t-277 -155t-334 -46q-234 0 -418 74.5t-346 239.5l156 149q99 -91 194 -142.5t201 -73.5t244 -22q102 0 210 24.5t185.5 87t77.5 163.5q0 54 -27.5 99t-74.5 75q-55 36 -126.5 46t-254.5 13l-230 4q-96 3 -175.5 27.5t-142.5 73.5t-99.5 123.5
t-36.5 167.5q0 105 52.5 192.5t139.5 149t188 94.5q131 39 265 39q89 0 172 -12.5t162 -38.5t154 -64.5t147 -93.5l-125 -178q-140 86 -240.5 122.5t-241.5 36.5q-91 0 -194.5 -22t-178.5 -77t-75 -146q0 -176 258 -176h227q109 0 176 -5t139.5 -24.5t145.5 -63.5
q102 -60 158.5 -159.5t56.5 -221.5zM1180 1919l-182 -253h-231l-183 253h179l110 -147l123 147h184z" />
    <glyph glyph-name="scaron" unicode="&#x161;" horiz-adv-x="1403" 
d="M1272 319q0 -137 -83.5 -216t-207.5 -109.5t-260 -30.5t-225.5 15.5t-173.5 55t-197 118.5l98 190q109 -68 189 -102.5t168 -48t211 -13.5q96 0 181 35.5t85 116.5q0 97 -160 106q-35 2 -96.5 3.5t-114.5 2.5l-106 2q-101 5 -190 41.5t-143 107.5t-54 177q0 124 75 196.5
t188.5 101t233.5 28.5q142 0 260 -33.5t252 -106.5l-96 -188q-114 60 -225 88.5t-242 28.5q-82 0 -157.5 -27.5t-75.5 -95.5q0 -94 188 -103q62 -2 100 -2.5l76 -1t100 -2.5q114 -5 204 -38.5t144 -107.5t54 -188zM991 1442l-182 -253h-231l-183 253h179l110 -147l123 147
h184z" />
    <glyph glyph-name="Ydieresis" unicode="&#x178;" horiz-adv-x="1554" 
d="M1522 1528l-631 -866v-662h-221v662l-621 866h268l467 -647l461 647h277zM1055 1692h-189v199h189v-199zM684 1692h-188v199h188v-199z" />
    <glyph glyph-name="Zcaron" unicode="&#x17d;" horiz-adv-x="1442" 
d="M1389 0h-1272l-72 154l975 1149h-889v225h1165l80 -152l-979 -1149h992v-227zM1024 1919l-182 -253h-231l-183 253h179l110 -147l123 147h184z" />
    <glyph glyph-name="zcaron" unicode="&#x17e;" horiz-adv-x="1100" 
d="M1067 0h-961l-73 137l657 711h-584v213h867l94 -143l-661 -705h661v-213zM850 1442l-182 -253h-231l-183 253h179l110 -147l123 147h184z" />
    <glyph glyph-name="florin" unicode="&#x192;" horiz-adv-x="1442" 
d="M1210 1356l-32 -180q-82 8 -121 8q-96 0 -153 -38t-70 -128l-11 -68h305l-20 -168h-309l-78 -549q-18 -124 -35.5 -208.5t-48.5 -149.5q-33 -70 -84.5 -110t-116.5 -55t-145 -15q-29 0 -71.5 2t-98.5 4l39 184q98 -4 147 -4q64 0 101 25q52 34 73 122.5t39 221.5l74 532
h-293l33 168h282l21 133q24 150 126.5 217.5t258.5 67.5q94 0 188 -12z" />
    <glyph glyph-name="circumflex" unicode="&#x2c6;" 
d="M696 1174h-182l-123 147l-110 -147h-181l181 253h231z" />
    <glyph glyph-name="caron" unicode="&#x2c7;" 
d="M696 1427l-182 -253h-231l-183 253h179l110 -147l123 147h184z" />
    <glyph glyph-name="macron" unicode="&#x2c9;" 
d="M676 1241h-555v133h555v-133z" />
    <glyph glyph-name="breve" unicode="&#x2d8;" 
d="M707 1425q-7 -118 -97.5 -184.5t-212.5 -66.5q-121 0 -209.5 66.5t-97.5 184.5h168q12 -49 50 -77.5t89 -28.5q52 0 90 28.5t50 77.5h170z" />
    <glyph glyph-name="dotaccent" unicode="&#x2d9;" 
d="M494 1200h-191v199h191v-199z" />
    <glyph glyph-name="ring" unicode="&#x2da;" 
d="M633 1407q0 -63 -31.5 -116.5t-85 -85t-117.5 -31.5q-65 0 -118.5 31.5t-85 85t-31.5 116.5t31.5 116.5t84.5 85t117 31.5q65 0 119 -32t85.5 -85t31.5 -116zM498 1407h2q0 20 -8 39.5t-22.5 33.5t-32.5 21.5t-38 7.5q-43 0 -73.5 -29.5t-30.5 -72.5q0 -39 30.5 -69.5
t71.5 -30.5q28 0 51 13.5t36.5 36.5t13.5 50z" />
    <glyph glyph-name="ogonek" unicode="&#x2db;" 
d="M608 -330q-100 -94 -243 -94q-79 0 -128 42.5t-49 119.5q0 199 250 321l74 -20q-62 -87 -94.5 -146t-32.5 -116q0 -37 21.5 -59.5t58.5 -22.5q65 0 119 41z" />
    <glyph glyph-name="tilde" unicode="&#x2dc;" 
d="M741 1405q-5 -106 -41 -163.5t-133 -57.5q-61 0 -103.5 9t-109.5 26.5t-90 17.5q-55 0 -55 -63h-154q0 69 17 118.5t58.5 76t115.5 26.5q50 0 144 -23.5t132 -23.5q68 0 68 57h151z" />
    <glyph glyph-name="hungarumlaut" unicode="&#x2dd;" 
d="M762 1423l-217 -249h-189l164 249h242zM438 1423l-215 -249h-188l164 249h239z" />
    <glyph glyph-name="endash" unicode="&#x2013;" horiz-adv-x="758" 
d="M778 434h-796v195h796v-195z" />
    <glyph glyph-name="emdash" unicode="&#x2014;" horiz-adv-x="2048" 
d="M2066 434h-2084v195h2084v-195z" />
    <glyph glyph-name="quoteleft" unicode="&#x2018;" horiz-adv-x="834" 
d="M535 1096q0 -52 -40.5 -89.5t-91.5 -37.5q-84 0 -137 72.5t-53 160.5q0 114 56.5 195.5t136.5 146.5q11 9 32 20t29 11q22 0 35.5 -12.5t13.5 -40.5q0 -32 -31 -56q-48 -29 -83 -77t-35 -99q0 -53 41 -53q58 0 92.5 -39.5t34.5 -101.5z" />
    <glyph glyph-name="quoteright" unicode="&#x2019;" horiz-adv-x="834" 
d="M627 1343q0 -116 -54.5 -195.5t-136.5 -148.5q-45 -30 -61 -30q-20 0 -34.5 14.5t-14.5 38.5q0 35 30 57q50 31 84.5 78.5t34.5 97.5q0 54 -41 54q-59 0 -94 39t-35 102q0 50 41.5 87.5t91.5 37.5q59 0 101 -33.5t65 -86.5t23 -112z" />
    <glyph glyph-name="quotesinglbase" unicode="&#x201a;" horiz-adv-x="834" 
d="M627 4q0 -80 -30 -146.5t-73 -114t-88 -83.5q-46 -31 -61 -31q-21 0 -35 15t-14 39q0 34 30 57q50 31 84.5 78.5t34.5 97.5q0 53 -41 53q-58 0 -93.5 39.5t-35.5 102.5q0 51 41 88t92 37q59 0 101 -33.5t65 -86.5t23 -112z" />
    <glyph glyph-name="quotedblleft" unicode="&#x201c;" horiz-adv-x="1366" 
d="M1077 1096q0 -52 -40 -89.5t-91 -37.5q-85 0 -137.5 71.5t-52.5 161.5q0 113 56 195t136 147q40 31 62 31q21 0 35 -13t14 -40q0 -31 -31 -56q-47 -29 -83 -78.5t-36 -97.5q0 -24 11 -38.5t30 -14.5q59 0 93 -39.5t34 -101.5zM627 1096q0 -52 -40.5 -89.5t-90.5 -37.5
q-85 0 -138 72.5t-53 160.5q0 114 56.5 195.5t136.5 146.5q11 9 32 20t29 11q22 0 35.5 -12.5t13.5 -40.5q0 -32 -30 -56q-49 -29 -84 -77t-35 -99q0 -53 41 -53q59 0 93 -39.5t34 -101.5z" />
    <glyph glyph-name="quotedblright" unicode="&#x201d;" horiz-adv-x="1366" 
d="M1077 1343q0 -114 -54 -194.5t-136 -149.5q-49 -30 -62 -30q-19 0 -34 14t-15 39q0 34 31 57q31 20 57.5 47.5t44 62t17.5 66.5q0 25 -11 39.5t-30 14.5q-59 0 -94 39t-35 102q0 50 41.5 87.5t91.5 37.5q57 0 100.5 -34t65.5 -86.5t22 -111.5zM627 1343
q0 -116 -54.5 -195.5t-136.5 -148.5q-45 -30 -61 -30q-20 0 -34.5 14.5t-14.5 38.5q0 35 30 57q50 31 84.5 78.5t34.5 97.5q0 54 -41 54q-59 0 -94 39t-35 102q0 50 41.5 87.5t91.5 37.5q59 0 101 -33.5t65 -86.5t23 -112z" />
    <glyph glyph-name="quotedblbase" unicode="&#x201e;" horiz-adv-x="1366" 
d="M1077 4q0 -80 -29.5 -145.5t-72.5 -114t-88 -84.5q-50 -31 -62 -31q-20 0 -34.5 14.5t-14.5 39.5q0 34 31 57q47 29 83 77.5t36 98.5q0 53 -41 53q-58 0 -93.5 39.5t-35.5 102.5q0 51 41 88t92 37q57 0 100.5 -34t65.5 -86.5t22 -111.5zM627 4q0 -80 -30 -146.5t-73 -114
t-88 -83.5q-46 -31 -61 -31q-21 0 -35 15t-14 39q0 34 30 57q50 31 84.5 78.5t34.5 97.5q0 53 -41 53q-58 0 -93.5 39.5t-35.5 102.5q0 51 41 88t92 37q59 0 101 -33.5t65 -86.5t23 -112z" />
    <glyph glyph-name="dagger" unicode="&#x2020;" horiz-adv-x="1214" 
d="M1094 918h-385v-918h-203v918h-387v192h387v416h203v-416h385v-192z" />
    <glyph glyph-name="daggerdbl" unicode="&#x2021;" horiz-adv-x="1214" 
d="M1094 391h-385v-391h-203v391h-387v193h387v366h-387v193h387v383h203v-383h385v-193h-385v-366h385v-193z" />
    <glyph glyph-name="bullet" unicode="&#x2022;" horiz-adv-x="1024" 
d="M793 762q0 -75 -37.5 -139t-102.5 -101t-139 -37t-138.5 36.5t-102 101t-37.5 139.5t38 140t101.5 102.5t138.5 37.5q56 0 108.5 -23t89.5 -60t59 -89t22 -108z" />
    <glyph glyph-name="ellipsis" unicode="&#x2026;" horiz-adv-x="2277" 
d="M2042 113q0 -39 -19 -73.5t-52.5 -54.5t-72.5 -20t-72.5 20.5t-52 55t-18.5 72.5q0 61 42 104t101 43q61 0 102.5 -44t41.5 -103zM1282 113q0 -60 -41.5 -104t-101.5 -44q-38 0 -72.5 20.5t-53 55t-18.5 72.5q0 61 42 104t102 43q62 0 102.5 -44t40.5 -103zM522 113
q0 -60 -41.5 -104t-101.5 -44t-101.5 44t-41.5 104t41.5 103.5t101.5 43.5q62 0 102.5 -44t40.5 -103z" />
    <glyph glyph-name="perthousand" unicode="&#x2030;" horiz-adv-x="3678" 
d="M3551 389q0 -136 -72 -233t-190.5 -146t-251.5 -49q-127 0 -240 51t-182 148t-69 225q0 139 68.5 237t184.5 146.5t250 48.5q129 0 245 -51t186.5 -148t70.5 -229zM2423 389h2q0 -136 -72 -233t-190.5 -146t-251.5 -49q-127 0 -240 51t-182.5 148t-69.5 225
q0 139 68.5 236.5t184 146.5t251.5 49q129 0 244.5 -51t185.5 -148t70 -229zM1950 1470l-1131 -1552h-196l1128 1552h199zM1124 940q0 -136 -72 -233t-191.5 -146t-252.5 -49q-127 0 -240 51t-182 148t-69 225q0 139 68.5 236.5t184 146.5t251.5 49q129 0 245.5 -50.5
t187 -148t70.5 -229.5zM3344 393q0 70 -40.5 125.5t-107.5 85t-140 29.5q-77 0 -146.5 -30t-112 -87t-42.5 -129q0 -107 90.5 -175.5t206.5 -68.5q74 0 141.5 31t109 88.5t41.5 130.5zM2216 393h2q0 70 -40.5 125.5t-107 85t-141.5 29.5t-144.5 -30t-113 -86.5t-43.5 -129.5
q0 -70 42.5 -126.5t110.5 -87t144 -30.5q58 0 110 18.5t92 50.5t64.5 80t24.5 101zM913 944h2q0 70 -40.5 125.5t-107.5 85t-140 29.5q-77 0 -146.5 -30t-112 -87t-42.5 -129q0 -108 90.5 -176t206.5 -68q74 0 141 31t108 88.5t41 130.5z" />
    <glyph glyph-name="guilsinglleft" unicode="&#x2039;" horiz-adv-x="721" 
d="M600 137h-205l-274 402l274 395h205l-235 -395z" />
    <glyph glyph-name="guilsinglright" unicode="&#x203a;" horiz-adv-x="721" 
d="M600 539l-274 -402h-205l235 402l-235 395h205z" />
    <glyph glyph-name="uni2044" unicode="&#x2044;" horiz-adv-x="635" 
d="M989 1470l-1128 -1552h-195l1127 1552h196z" />
    <glyph glyph-name="Euro" unicode="&#x20ac;" horiz-adv-x="1821" 
d="M1739 242q-159 -152 -315.5 -216.5t-364.5 -64.5q-170 0 -317 56t-254 160t-160 247h-207l29 147h143q-6 44 -6 93v45h-168l31 149h161q44 154 147.5 269.5t254 179t323.5 63.5q126 0 246 -30.5t231 -94.5t207 -160l-147 -137q-84 72 -170 121.5t-178 74.5t-197 25
q-165 0 -299 -85t-194 -226h780l-29 -149h-788q-2 -15 -2 -41q0 -56 8 -97h756l-29 -147h-672q48 -82 125 -140.5t174.5 -89t208.5 -30.5q156 0 282.5 54.5t247.5 176.5z" />
    <glyph glyph-name="trademark" unicode="&#x2122;" horiz-adv-x="1479" 
d="M1376 936h-149v336l-187 -307l-186 305v-334h-149v592h133l202 -344l207 344h129v-592zM631 1393h-195v-457h-151v457h-199v135h545v-135z" />
    <glyph glyph-name="uni2126" unicode="&#x2126;" horiz-adv-x="1573" 
d="M496 160q-108 67 -165 130q-87 96 -134 225.5t-47 286.5q0 196 79.5 360.5t231 252.5t347.5 88q336 0 516 -254q131 -186 131 -448q0 -168 -54 -297.5t-141 -222.5q-53 -58 -149 -121l364 6v-166h-575v177q80 40 124 78q72 61 122 145t75.5 179t25.5 198
q0 138 -49.5 277.5t-150 212.5t-243.5 73q-191 0 -296 -120q-146 -169 -146 -440q0 -217 91 -372.5t251 -227.5v-180h-577v168z" />
    <glyph glyph-name="partialdiff" unicode="&#x2202;" horiz-adv-x="1012" 
d="M426 1138l-135 60q70 157 168 225t192 68q76 0 137.5 -39.5t92.5 -90.5q47 -79 69.5 -187t22.5 -248q0 -288 -86.5 -512.5t-233.5 -331.5t-289 -107q-137 0 -222.5 91t-85.5 256q0 226 153 387q197 207 649 215q-4 168 -24 256t-68 135.5t-113 47.5q-62 0 -121 -49.5
t-106 -175.5zM854 796q-244 -14 -357.5 -68t-187 -176.5t-73.5 -248.5q0 -83 51 -137t119 -54q75 0 160 55q117 76 190.5 234.5t97.5 394.5z" />
    <glyph glyph-name="uni2206" unicode="&#x2206;" horiz-adv-x="1253" 
d="M1227 0h-1200l628 1386zM991 82l-399 967l-440 -967h839z" />
    <glyph glyph-name="product" unicode="&#x220f;" horiz-adv-x="1686" 
d="M161 1491h1362v-1922h-191v1748h-978v-1748h-193v1922z" />
    <glyph glyph-name="summation" unicode="&#x2211;" horiz-adv-x="1460" 
d="M139 1491h1237v-164h-988l607 -775l-649 -822h1040v-161h-1264v187l620 788l-603 772v175z" />
    <glyph glyph-name="minus" unicode="&#x2212;" horiz-adv-x="1821" 
d="M1397 383h-973v190h973v-190z" />
    <glyph glyph-name="fraction" unicode="&#x2215;" horiz-adv-x="635" 
d="M989 1470l-1128 -1552h-195l1127 1552h196z" />
    <glyph glyph-name="periodcentered" unicode="&#x2219;" horiz-adv-x="758" 
d="M522 727q0 -60 -41.5 -103.5t-101.5 -43.5q-39 0 -72 20.5t-52 54.5t-19 72q0 60 41.5 103.5t101.5 43.5q39 0 72 -20.5t52 -54.5t19 -72z" />
    <glyph glyph-name="radical" unicode="&#x221a;" horiz-adv-x="1124" 
d="M1124 1870l-311 -1948l-496 1022l-198 -92l-35 63l301 152l403 -823h5l258 1626h73z" />
    <glyph glyph-name="infinity" unicode="&#x221e;" horiz-adv-x="1460" 
d="M689 812q105 132 164 174q80 58 169 58q105 0 196.5 -76t91.5 -245q0 -118 -34 -185.5t-106 -108.5t-148 -41q-89 0 -169 57q-59 43 -164 175q-136 -171 -289 -171q-101 0 -173.5 76.5t-72.5 190.5q0 113 72.5 190t173.5 77q153 0 289 -171zM758 717q87 -135 159 -185
q46 -33 103 -33q76 0 127.5 56t51.5 158q0 106 -52.5 162t-130.5 56q-49 0 -92 -28q-58 -39 -166 -186zM620 716q-80 100 -128 128.5t-92 28.5q-58 0 -96.5 -41t-38.5 -113q0 -71 40 -113.5t97 -42.5q101 0 218 153z" />
    <glyph glyph-name="integral" unicode="&#x222b;" horiz-adv-x="561" 
d="M561 1755q0 -29 -12.5 -53t-34 -36.5t-47.5 -12.5q-36 0 -76 35q-20 20 -39 20q-41 0 -41 -63q0 -46 11 -146q18 -204 27 -371t9 -294l-2 -121l-14 -471q-6 -190 -49 -320q-22 -67 -68 -104t-106 -37q-54 0 -86.5 33.5t-32.5 87.5q0 44 25 71t65 27q42 0 70 -33
q13 -14 24 -22t25 -8q39 0 39 61q0 37 -10 119q-20 170 -29 395q-3 104 -6 229q-2 70 -2 154l16 553q6 191 66 317q19 40 63.5 69.5t87.5 29.5q31 0 61.5 -15t48 -41t17.5 -53z" />
    <glyph glyph-name="approxequal" unicode="&#x2248;" horiz-adv-x="1124" 
d="M51 738v205q106 120 278 120q60 0 125.5 -17t188.5 -70q69 -30 103.5 -38.5t69.5 -8.5q65 0 134.5 39t123.5 98v-212q-64 -60 -129.5 -87t-147.5 -27q-60 0 -114 13.5t-173 67t-198 53.5q-64 0 -120.5 -27.5t-140.5 -108.5zM51 376v205q106 120 278 120q60 0 125.5 -17
t188.5 -70q69 -29 103.5 -38t69.5 -9q65 0 134.5 39t123.5 98v-212q-64 -60 -129.5 -87t-147.5 -27q-60 0 -114 14t-173 67t-198 53q-64 0 -120.5 -27.5t-140.5 -108.5z" />
    <glyph glyph-name="notequal" unicode="&#x2260;" horiz-adv-x="1124" 
d="M495 417l-194 -445h-136l195 445h-282v168h356l122 277h-478v168h551l196 444h134l-195 -444h282v-168h-356l-121 -277h477v-168h-551z" />
    <glyph glyph-name="lessequal" unicode="&#x2264;" horiz-adv-x="1124" 
d="M77 762v168l971 410v-180l-770 -315l770 -319v-179zM1046 106h-968v167h968v-167z" />
    <glyph glyph-name="greaterequal" unicode="&#x2265;" horiz-adv-x="1124" 
d="M1048 762l-971 -415v179l769 319l-769 315v180l971 -410v-168zM1046 106h-968v167h968v-167z" />
    <glyph glyph-name="lozenge" unicode="&#x25ca;" horiz-adv-x="1012" 
d="M549 1422l418 -713l-418 -709h-111l-391 709l391 713h111zM495 1325l-340 -616l340 -615l359 615z" />
    <glyph glyph-name="uniF001" unicode="&#xf001;" horiz-adv-x="2005" 
d="M1712 0h-209v1061h209v-1061zM1253 848h-729v-195h385v-211h-385v-442h-209v1061h938v-213z" />
    <glyph glyph-name="uniF001" unicode="&#xfb01;" horiz-adv-x="2005" 
d="M1712 0h-209v1061h209v-1061zM1253 848h-729v-195h385v-211h-385v-442h-209v1061h938v-213z" />
    <glyph glyph-name="uniF002" unicode="&#xf002;" horiz-adv-x="2404" 
d="M2353 0h-823v1061h219v-844h604v-217zM1253 848h-729v-195h385v-211h-385v-442h-209v1061h938v-213z" />
    <glyph glyph-name="uniF002" unicode="&#xfb02;" horiz-adv-x="2404" 
d="M2353 0h-823v1061h219v-844h604v-217zM1253 848h-729v-195h385v-211h-385v-442h-209v1061h938v-213z" />
    <glyph glyph-name="uniF006" unicode="&#xf006;" horiz-adv-x="1413" 
d="M505 916v-916h-180v916h-280v146h1324v-146h-242v-916h-180v916h-442z" />
  </font>
</defs>
</svg>
